<svg width="1000" height="1000" viewBox="0 0 1000 1000" xmlns="http://www.w3.org/2000/svg"><defs/><path fill="#b90909" d="M 0 0 L 1000 0 L 1000 1000 L 0 1000 Z"/><path fill="#ffffff" transform="matrix(0.14028778776955772 0 0 0.14028778776955772 640.1496987637735 363.7397049107578)" d="M -2363.48643700396 721.53670970293 C -2377.40843700396 680.47070970293 -2400.93743700396 640.85470970293 -2433.23643700396 611.59670970293 C -2450.89343700396 595.60270970293 -2472.37543700396 584.04570970293 -2492.50843700396 571.44270970293 C -2492.50843700396 601.81670970293 -2491.42243700396 632.25370970293 -2496.82243700396 662.29470970293 C -2499.91743700396 679.50870970293 -2504.43043700396 714.38670970293 -2524.45643700396 721.05070970293 C -2529.92943700396 722.87270970293 -2535.72243700396 721.38570970293 -2541.14543700396 720.17970970293 C -2548.74543700396 718.49070970293 -2564.53643700396 716.67070970293 -2567.59343700396 708.14970970293 C -2571.30443700396 696.92470970293 -2569.39643700396 683.79070970293 -2568.03243700396 672.31370970293 C -2566.38743700396 658.47870970293 -2564.04643700396 644.72570970293 -2561.65243700396 631.00370970293 C -2557.83343700396 609.11670970293 -2553.66243700396 587.29070970293 -2549.62243700396 565.44370970293 C -2546.14343700396 546.63270970293 -2541.85143700396 527.78370970293 -2539.26043700396 508.82170970293 C -2538.04443700396 499.92470970293 -2536.62343700396 491.12170970293 -2535.07543700396 482.27470970293 C -2532.61043700396 468.18870970293 -2532.14143700396 454.15670970293 -2532.14143700396 439.85870970293 C -2532.14143700396 408.66870970293 -2536.17443700396 376.96370970293 -2545.98343700396 347.25670970293 C -2560.85843700396 302.20870970293 -2588.53543700396 261.75870970293 -2626.47343700396 233.06770970293 C -2647.60543700396 217.08670970293 -2671.80943700396 207.39970970293 -2695.77843700396 196.62470970293 C -2688.57843700396 223.93170970293 -2680.46543700396 251.18970970293 -2675.36143700396 278.97570970293 C -2670.86343700396 303.45870970293 -2667.20143700396 329.11370970293 -2672.90243700396 353.72470970293 C -2677.90643700396 375.32770970293 -2691.44943700396 391.42370970293 -2709.72043700396 403.43370970293 C -2753.04043700396 431.90770970293 -2808.56643700396 443.31070970293 -2858.15443700396 455.70170970293 C -2886.22043700396 462.71470970293 -2915.12743700396 470.81070970293 -2941.18443700396 483.73270970293 C -2961.71943700396 493.91470970293 -2979.98143700396 505.20170970293 -2997.65543700396 519.68770970293 C -3029.50743700396 545.79570970293 -3048.65343700396 585.46370970293 -3050.87043700396 626.37070970293 C -3052.14543700396 649.90870970293 -3049.04843700396 674.82170970293 -3041.56343700396 697.23170970293 C -3033.83743700396 720.35970970293 -3023.90643700396 742.62970970293 -3016.73643700396 765.96770970293 C -3008.70443700396 789.06070970293 -3002.09743700396 818.10370970293 -3006.77443700396 842.55470970293 C -3011.53043700396 867.42670970293 -3030.06343700396 879.69070970293 -3053.57943700396 884.58370970293 C -3075.52643700396 889.15070970293 -3102.43443700396 888.80770970293 -3123.41843700396 880.24870970293 C -3156.64743700396 866.69470970293 -3161.33543700396 828.79570970293 -3157.85643700396 797.15770970293 C -3153.01743700396 754.93370970293 -3135.68243700396 716.71270970293 -3119.89543700396 677.79670970293 C -3136.55443700396 687.12670970293 -3153.32243700396 696.28370970293 -3169.87143700396 705.80870970293 C -3210.12143700396 728.97470970293 -3245.48143700396 760.40770970293 -3273.20343700396 797.66670970293 C -3302.95343700396 837.65270970293 -3324.29143700396 884.65370970293 -3330.61443700396 934.33570970293 C -3334.00343700396 960.97170970293 -3334.05943700396 987.84170970293 -3333.98643700396 1014.64370970293 C -3333.91443700396 1041.10470970293 -3332.14543700396 1068.64170970293 -3338.00643700396 1094.69770970293 C -3340.58743700396 1106.17070970293 -3349.03043700396 1125.12370970293 -3362.11743700396 1128.23470970293 C -3366.82843700396 1129.35770970293 -3370.03343700396 1130.97270970293 -3374.40943700396 1128.11870970293 C -3380.65143700396 1124.04670970293 -3384.63043700396 1115.84770970293 -3387.50343700396 1109.22270970293 C -3393.45643700396 1095.49370970293 -3393.26443700396 1079.41270970293 -3394.90543700396 1064.71370970293 C -3410.10143700396 1078.10270970293 -3426.27743700396 1090.98470970293 -3439.85643700396 1106.05070970293 C -3469.18843700396 1138.59370970293 -3486.19343700396 1179.81970970293 -3491.67043700396 1223.04670970293 C -3502.96043700396 1312.15070970293 -3469.87843700396 1408.41170970293 -3420.77043700396 1481.90570970293 C -3461.76943700396 1375.93770970293 -3486.31943700396 1238.80270970293 -3415.04443700396 1140.07170970293 C -3403.71043700396 1157.76670970293 -3385.99443700396 1170.25270970293 -3364.22843700396 1168.27870970293 C -3349.70043700396 1166.96170970293 -3335.55643700396 1158.68970970293 -3325.18443700396 1148.72370970293 C -3290.11043700396 1115.02270970293 -3295.37143700396 1058.49570970293 -3295.71643700396 1014.18170970293 C -3296.08843700396 966.18970970293 -3293.90043700396 919.20970970293 -3274.12643700396 874.72170970293 C -3255.66843700396 833.19270970293 -3226.71043700396 796.31870970293 -3191.63243700396 767.52970970293 C -3201.48143700396 814.97270970293 -3200.67943700396 873.13570970293 -3157.68643700396 904.60270970293 C -3128.63043700396 925.86970970293 -3086.94543700396 928.24870970293 -3052.33643700396 922.78570970293 C -3029.55143700396 919.18870970293 -3007.02043700396 910.64770970293 -2990.98843700396 893.52270970293 C -2974.15043700396 875.53470970293 -2967.28043700396 851.19070970293 -2967.61443700396 826.97770970293 C -2968.33543700396 774.75770970293 -2990.37643700396 728.80370970293 -3006.79143700396 680.31670970293 C -3020.67443700396 639.30670970293 -3012.97543700396 589.79570970293 -2983.03743700396 558.05470970293 C -2966.90543700396 540.38870970293 -2947.66243700396 529.74670970293 -2926.71943700396 518.85870970293 C -2899.96543700396 504.94870970293 -2869.56843700396 497.79770970293 -2840.56343700396 490.45370970293 C -2791.06343700396 477.91970970293 -2738.05843700396 465.19970970293 -2694.09243700396 438.18370970293 C -2668.60443700396 422.52170970293 -2648.41943700396 400.78170970293 -2638.99543700396 371.99970970293 C -2628.64643700396 340.39170970293 -2632.49743700396 306.04770970293 -2638.12443700396 273.92170970293 C -2581.61943700396 325.14770970293 -2563.95043700396 404.54070970293 -2573.96443700396 477.89770970293 C -2581.01943700396 529.57470970293 -2592.16243700396 580.54270970293 -2600.90343700396 631.95270970293 C -2605.73943700396 660.39870970293 -2614.01643700396 694.22870970293 -2603.65343700396 722.30070970293 C -2594.18443700396 746.79270970293 -2568.00143700396 754.45770970293 -2544.49543700396 759.05070970293 C -2478.77843700396 771.88970970293 -2460.89843700396 695.70070970293 -2455.89143700396 646.19370970293 C -2423.97343700396 674.75970970293 -2397.25743700396 707.36170970293 -2380.95743700396 747.31870970293 C -2363.72543700396 789.56270970293 -2359.52743700396 835.81170970293 -2365.00643700396 880.91670970293 C -2347.86143700396 829.38870970293 -2346.60543700396 773.29570970293 -2363.48643700396 721.53670970293 C -2372.43443700396 695.14070970293 -2354.97543700396 747.63070970293 -2363.48643700396 721.53670970293 Z"/><path fill="#ffffff" transform="matrix(0.14028778776955772 0 0 0.14028778776955772 640.1496987637735 363.7397049107578)" d="M -2121.18843700396 1123.37270970293 L -2134.89543700396 1122.93270970293 C -2137.94743700396 1122.83470970293 -2140.88543700396 1122.78670970293 -2143.87743700396 1122.78670970293 C -2200.43343700396 1122.78670970293 -2245.27143700396 1140.18270970293 -2277.14743700396 1174.49070970293 C -2291.82843700396 1190.29170970293 -2300.19143700396 1206.16170970293 -2304.35943700396 1215.69770970293 L -2310.00743700396 1232.55870970293 L -2328.03243700396 1240.10370970293 L -2908.12443700396 1464.49670970293 L -2324.15543700396 1220.05270970293 C -2460.55643700396 1085.55270970293 -2877.74943700396 880.98870970293 -2877.74943700396 880.98870970293 L -3377.48343700396 1564.21470970293 C -3382.77843700396 1571.40170970293 -3386.58143700396 1579.57470970293 -3388.66643700396 1588.25470970293 C -3390.54743700396 1595.40170970293 -3391.27843700396 1601.61370970293 -3391.11043700396 1607.02570970293 C -3393.77143700396 1627.30970970293 -3379.67643700396 1650.85870970293 -3361.83343700396 1659.08870970293 C -3361.70443700396 1659.14870970293 -3361.57843700396 1659.17070970293 -3361.45543700396 1659.17970970293 C -3354.79543700396 1663.78570970293 -3347.20743700396 1667.28170970293 -3338.85643700396 1669.27370970293 C -3327.79543700396 1671.91270970293 -3316.24643700396 1671.70370970293 -3305.28843700396 1668.66570970293 C -3264.85443700396 1657.41070970293 -3219.40043700396 1644.70570970293 -3170.56043700396 1630.97370970293 L -3170.56043700396 1652.61470970293 C -3170.56043700396 1676.85770970293 -3150.90843700396 1696.51070970293 -3126.66443700396 1696.51070970293 L -3126.58843700396 1696.51070970293 C -3102.34643700396 1696.51070970293 -3082.69343700396 1676.85870970293 -3082.69343700396 1652.61470970293 L -3082.69343700396 1606.18670970293 C -3069.25543700396 1602.38170970293 -3055.65443700396 1598.52670970293 -3041.91843700396 1594.62470970293 L -3041.91843700396 1702.06270970293 C -3041.91843700396 1726.30470970293 -3022.26643700396 1745.95770970293 -2998.02243700396 1745.95770970293 L -2997.94643700396 1745.95770970293 C -2973.70443700396 1745.95770970293 -2954.05043700396 1726.30570970293 -2954.05043700396 1702.06270970293 L -2954.05043700396 1569.57370970293 C -2896.99643700396 1553.24370970293 -2838.68643700396 1536.42470970293 -2780.90543700396 1519.57570970293 L -2780.90543700396 1547.40270970293 C -2780.90543700396 1571.64570970293 -2761.25243700396 1591.29870970293 -2737.00943700396 1591.29870970293 L -2736.93343700396 1591.29870970293 C -2712.69143700396 1591.29870970293 -2693.03743700396 1571.64670970293 -2693.03743700396 1547.40270970293 L -2693.03743700396 1493.80170970293 C -2459.74243700396 1424.93870970293 -2250.87543700396 1359.57470970293 -2190.71843700396 1329.75270970293 C -2061.75643700396 1265.64870970293 -2103.42243700396 1157.94570970293 -2121.18843700396 1123.37270970293 Z M -3058.81843700396 1253.48170970293 C -3052.18343700396 1250.41270970293 -3044.96043700396 1251.91170970293 -3042.68343700396 1256.83070970293 C -3040.40843700396 1261.74970970293 -3043.94143700396 1268.22570970293 -3050.57643700396 1271.29570970293 C -3057.21143700396 1274.36470970293 -3064.43443700396 1272.86570970293 -3066.71043700396 1267.94770970293 C -3068.98643700396 1263.02870970293 -3065.45343700396 1256.55170970293 -3058.81843700396 1253.48170970293 Z M -3239.16243700396 1536.41770970293 C -3245.39443700396 1537.99170970293 -3251.39043700396 1535.53670970293 -3252.55343700396 1530.93470970293 C -3253.71643700396 1526.33070970293 -3249.60643700396 1521.32370970293 -3243.37343700396 1519.74870970293 C -3237.14143700396 1518.17370970293 -3231.14543700396 1520.62870970293 -3229.98243700396 1525.23070970293 C -3228.82043700396 1529.83470970293 -3232.93043700396 1534.84270970293 -3239.16243700396 1536.41770970293 Z M -3223.59143700396 1454.15370970293 C -3230.22643700396 1457.22370970293 -3237.44943700396 1455.72470970293 -3239.72543700396 1450.80570970293 C -3242.00143700396 1445.88670970293 -3238.46843700396 1439.41070970293 -3231.83343700396 1436.34070970293 C -3225.19843700396 1433.27170970293 -3217.97543700396 1434.76970970293 -3215.69843700396 1439.68870970293 C -3213.42343700396 1444.60770970293 -3216.95643700396 1451.08370970293 -3223.59143700396 1454.15370970293 Z M -3065.74543700396 1451.20570970293 C -3114.31743700396 1467.57970970293 -3161.30843700396 1458.26270970293 -3170.70443700396 1430.39270970293 C -3180.10043700396 1402.52370970293 -3148.34143700396 1366.65770970293 -3099.76843700396 1350.28270970293 C -3051.19543700396 1333.90770970293 -3004.20443700396 1343.22570970293 -2994.80843700396 1371.09570970293 C -2985.41443700396 1398.96470970293 -3017.17343700396 1434.83070970293 -3065.74543700396 1451.20570970293 Z M -2656.88643700396 1073.15570970293 C -2650.25143700396 1070.08670970293 -2643.02843700396 1071.58570970293 -2640.75143700396 1076.50370970293 C -2638.47643700396 1081.42270970293 -2642.00943700396 1087.89970970293 -2648.64443700396 1090.96970970293 C -2655.27943700396 1094.03870970293 -2662.50243700396 1092.53970970293 -2664.77943700396 1087.62070970293 C -2667.05443700396 1082.70270970293 -2663.52043700396 1076.22570970293 -2656.88643700396 1073.15570970293 Z M -2614.39843700396 1119.30970970293 C -2563.89943700396 1110.52270970293 -2518.87543700396 1126.88870970293 -2513.83443700396 1155.86470970293 C -2508.79243700396 1184.83970970293 -2545.64343700396 1215.45170970293 -2596.14343700396 1224.23770970293 C -2646.64243700396 1233.02370970293 -2691.66643700396 1216.65770970293 -2696.70843700396 1187.68270970293 C -2701.74943700396 1158.70670970293 -2664.89843700396 1128.09570970293 -2614.39843700396 1119.30970970293 Z M -2697.26443700396 1253.48870970293 C -2690.63043700396 1250.41970970293 -2683.40743700396 1251.91770970293 -2681.13043700396 1256.83670970293 C -2678.85343700396 1261.75570970293 -2682.38843700396 1268.23270970293 -2689.02343700396 1271.30170970293 C -2695.65843700396 1274.37170970293 -2702.88143700396 1272.87270970293 -2705.15743700396 1267.95370970293 C -2707.43343700396 1263.03470970293 -2703.89843700396 1256.55870970293 -2697.26443700396 1253.48870970293 Z M -2836.51843700396 995.29770970293 C -2805.14643700396 984.72170970293 -2774.79443700396 990.73570970293 -2768.72843700396 1008.73170970293 C -2762.66243700396 1026.72770970293 -2783.17643700396 1049.88970970293 -2814.54943700396 1060.46570970293 C -2845.92143700396 1071.04170970293 -2876.27343700396 1065.02770970293 -2882.33943700396 1047.03170970293 C -2888.40643700396 1029.03670970293 -2867.89243700396 1005.87370970293 -2836.51843700396 995.29770970293 Z M -2946.64243700396 1105.92770970293 C -2953.27743700396 1108.99770970293 -2960.50043700396 1107.49870970293 -2962.77643700396 1102.57970970293 C -2965.05243700396 1097.66070970293 -2961.51843700396 1091.18470970293 -2954.88343700396 1088.11470970293 C -2948.24843700396 1085.04470970293 -2941.02643700396 1086.54370970293 -2938.74943700396 1091.46270970293 C -2936.47243700396 1096.38170970293 -2940.00743700396 1102.85870970293 -2946.64243700396 1105.92770970293 Z M -2936.55343700396 1240.99570970293 C -2943.76043700396 1219.61570970293 -2917.81343700396 1191.56670970293 -2878.59643700396 1178.34670970293 C -2839.38043700396 1165.12570970293 -2801.74643700396 1171.74070970293 -2794.53943700396 1193.11970970293 C -2787.33143700396 1214.49970970293 -2813.27943700396 1242.54870970293 -2852.49543700396 1255.76870970293 C -2891.71143700396 1268.98870970293 -2929.34643700396 1262.37470970293 -2936.55343700396 1240.99570970293 Z M -2913.64443700396 1388.78470970293 C -2920.27943700396 1391.85370970293 -2927.50143700396 1390.35570970293 -2929.77843700396 1385.43670970293 C -2932.05543700396 1380.51770970293 -2928.52043700396 1374.04070970293 -2921.88543700396 1370.97170970293 C -2915.25043700396 1367.90170970293 -2908.02743700396 1369.40070970293 -2905.75143700396 1374.31970970293 C -2903.47543700396 1379.23870970293 -2907.01043700396 1385.71370970293 -2913.64443700396 1388.78470970293 Z"/><path fill="#ffffff" transform="matrix(0.14028778776955772 0 0 0.14028778776955772 640.1496987637735 363.7397049107578)" d="M -2792.01543700396 684.71670970293 C -2872.35043700396 737.81670970293 -2877.75043700396 880.98770970293 -2877.75043700396 880.98770970293 C -2877.75043700396 880.98770970293 -2460.55843700396 1085.55170970293 -2324.15643700396 1220.05170970293 C -2324.15643700396 1220.05170970293 -2290.76043700396 1100.91870970293 -2134.34943700396 1105.94070970293 C -2418.56443700396 828.34470970293 -2792.01543700396 684.71670970293 -2792.01543700396 684.71670970293 Z M -2715.93943700396 777.29870970293 C -2769.41943700396 757.21470970293 -2802.20943700396 776.38570970293 -2802.20943700396 776.38570970293 C -2779.00643700396 738.04470970293 -2747.13143700396 729.90470970293 -2747.13143700396 729.90470970293 C -2443.66943700396 851.62470970293 -2222.59743700396 1064.63370970293 -2222.59743700396 1064.63370970293 C -2384.02643700396 948.16170970293 -2662.46043700396 797.38270970293 -2715.93943700396 777.29870970293 Z"/><path id="text" fill="#ffffff" transform="matrix(1.5297895487638806 0 0 1.5297895487638806 980.2386115100641 126.17263614614713)" d="M -382.92698579939 275.08522275624 L -382.92698579939 212.68522275624 C -382.92698579939 211.66122275624 -382.49498579939 210.76522275624 -381.63098579939 209.99722275624 C -380.76698579939 209.22922275624 -379.63098579939 208.84522275624 -378.22298579939 208.84522275624 L -358.92698579939 208.84522275624 C -352.33498579939 208.84522275624 -347.05498579939 210.58922275624 -343.08698579939 214.07722275624 C -339.11898579939 217.56522275624 -337.13498579939 223.02122275624 -337.13498579939 230.44522275624 L -337.13498579939 231.02122275624 C -337.13498579939 238.50922275624 -339.19898579939 244.01322275624 -343.32698579939 247.53322275624 C -347.45498579939 251.05322275624 -352.91098579939 252.81322275624 -359.69498579939 252.81322275624 L -370.44698579939 252.81322275624 L -370.44698579939 275.08522275624 C -370.44698579939 276.30122275624 -371.07098579939 277.26122275624 -372.31898579939 277.96522275624 C -373.56698579939 278.66922275624 -375.02298579939 279.02122275624 -376.68698579939 279.02122275624 C -378.41498579939 279.02122275624 -379.88698579939 278.66922275624 -381.10298579939 277.96522275624 C -382.31898579939 277.26122275624 -382.92698579939 276.30122275624 -382.92698579939 275.08522275624 Z M -370.44698579939 243.02122275624 L -359.69498579939 243.02122275624 C -356.49498579939 243.02122275624 -354.01498579939 242.09322275624 -352.25498579939 240.23722275624 C -350.49498579939 238.38122275624 -349.61498579939 235.62922275624 -349.61498579939 231.98122275624 L -349.61498579939 230.82922275624 C -349.61498579939 227.18122275624 -350.49498579939 224.42922275624 -352.25498579939 222.57322275624 C -354.01498579939 220.71722275624 -356.49498579939 219.78922275624 -359.69498579939 219.78922275624 L -370.44698579939 219.78922275624 L -370.44698579939 243.02122275624 Z M -331.08698579939 217.19722275624 C -331.08698579939 215.53322275624 -330.43098579939 214.10922275624 -329.11898579939 212.92522275624 C -327.80698579939 211.74122275624 -326.19098579939 211.14922275624 -324.27098579939 211.14922275624 C -322.41498579939 211.14922275624 -320.83098579939 211.74122275624 -319.51898579939 212.92522275624 C -318.20698579939 214.10922275624 -317.55098579939 215.53322275624 -317.55098579939 217.19722275624 C -317.55098579939 218.79722275624 -318.20698579939 220.20522275624 -319.51898579939 221.42122275624 C -320.83098579939 222.63722275624 -322.41498579939 223.24522275624 -324.27098579939 223.24522275624 C -326.19098579939 223.24522275624 -327.80698579939 222.63722275624 -329.11898579939 221.42122275624 C -330.43098579939 220.20522275624 -331.08698579939 218.79722275624 -331.08698579939 217.19722275624 Z M -330.41498579939 275.08522275624 L -330.41498579939 237.26122275624 C -330.41498579939 236.10922275624 -329.83898579939 235.18122275624 -328.68698579939 234.47722275624 C -327.53498579939 233.77322275624 -326.06298579939 233.42122275624 -324.27098579939 233.42122275624 C -322.47898579939 233.42122275624 -320.99098579939 233.77322275624 -319.80698579939 234.47722275624 C -318.62298579939 235.18122275624 -318.03098579939 236.10922275624 -318.03098579939 237.26122275624 L -318.03098579939 275.08522275624 C -318.03098579939 276.04522275624 -318.65498579939 276.94122275624 -319.90298579939 277.77322275624 C -321.15098579939 278.60522275624 -322.60698579939 279.02122275624 -324.27098579939 279.02122275624 C -325.99898579939 279.02122275624 -327.45498579939 278.62122275624 -328.63898579939 277.82122275624 C -329.82298579939 277.02122275624 -330.41498579939 276.10922275624 -330.41498579939 275.08522275624 Z M -311.21498579939 274.60522275624 C -311.21498579939 272.94122275624 -310.51098579939 271.27722275624 -309.10298579939 269.61322275624 L -290.19098579939 243.50122275624 L -306.79898579939 243.50122275624 C -307.82298579939 243.50122275624 -308.68698579939 243.00522275624 -309.39098579939 242.01322275624 C -310.09498579939 241.02122275624 -310.44698579939 239.82122275624 -310.44698579939 238.41322275624 C -310.44698579939 237.00522275624 -310.11098579939 235.82122275624 -309.43898579939 234.86122275624 C -308.76698579939 233.90122275624 -307.88698579939 233.42122275624 -306.79898579939 233.42122275624 L -278.57498579939 233.42122275624 C -277.42298579939 233.42122275624 -276.46298579939 233.78922275624 -275.69498579939 234.52522275624 C -274.92698579939 235.26122275624 -274.54298579939 236.30122275624 -274.54298579939 237.64522275624 C -274.54298579939 239.43722275624 -275.18298579939 241.16522275624 -276.46298579939 242.82922275624 L -295.47098579939 268.94122275624 L -276.65498579939 268.94122275624 C -275.63098579939 268.94122275624 -274.76698579939 269.43722275624 -274.06298579939 270.42922275624 C -273.35898579939 271.42122275624 -273.00698579939 272.62122275624 -273.00698579939 274.02922275624 C -273.00698579939 275.43722275624 -273.34298579939 276.62122275624 -274.01498579939 277.58122275624 C -274.68698579939 278.54122275624 -275.56698579939 279.02122275624 -276.65498579939 279.02122275624 L -306.99098579939 279.02122275624 C -308.39898579939 279.02122275624 -309.45498579939 278.58922275624 -310.15898579939 277.72522275624 C -310.86298579939 276.86122275624 -311.21498579939 275.82122275624 -311.21498579939 274.60522275624 Z M -269.26298579939 274.60522275624 C -269.26298579939 272.94122275624 -268.55898579939 271.27722275624 -267.15098579939 269.61322275624 L -248.23898579939 243.50122275624 L -264.84698579939 243.50122275624 C -265.87098579939 243.50122275624 -266.73498579939 243.00522275624 -267.43898579939 242.01322275624 C -268.14298579939 241.02122275624 -268.49498579939 239.82122275624 -268.49498579939 238.41322275624 C -268.49498579939 237.00522275624 -268.15898579939 235.82122275624 -267.48698579939 234.86122275624 C -266.81498579939 233.90122275624 -265.93498579939 233.42122275624 -264.84698579939 233.42122275624 L -236.62298579939 233.42122275624 C -235.47098579939 233.42122275624 -234.51098579939 233.78922275624 -233.74298579939 234.52522275624 C -232.97498579939 235.26122275624 -232.59098579939 236.30122275624 -232.59098579939 237.64522275624 C -232.59098579939 239.43722275624 -233.23098579939 241.16522275624 -234.51098579939 242.82922275624 L -253.51898579939 268.94122275624 L -234.70298579939 268.94122275624 C -233.67898579939 268.94122275624 -232.81498579939 269.43722275624 -232.11098579939 270.42922275624 C -231.40698579939 271.42122275624 -231.05498579939 272.62122275624 -231.05498579939 274.02922275624 C -231.05498579939 275.43722275624 -231.39098579939 276.62122275624 -232.06298579939 277.58122275624 C -232.73498579939 278.54122275624 -233.61498579939 279.02122275624 -234.70298579939 279.02122275624 L -265.03898579939 279.02122275624 C -266.44698579939 279.02122275624 -267.50298579939 278.58922275624 -268.20698579939 277.72522275624 C -268.91098579939 276.86122275624 -269.26298579939 275.82122275624 -269.26298579939 274.60522275624 Z M -227.21498579939 267.11722275624 C -227.21498579939 261.93322275624 -225.29498579939 258.28522275624 -221.45498579939 256.17322275624 C -217.61498579939 254.06122275624 -212.07898579939 253.00522275624 -204.84698579939 253.00522275624 L -200.91098579939 253.00522275624 L -200.91098579939 251.75722275624 C -200.91098579939 249.38922275624 -201.59898579939 247.32522275624 -202.97498579939 245.56522275624 C -204.35098579939 243.80522275624 -206.47898579939 242.92522275624 -209.35898579939 242.92522275624 C -212.23898579939 242.92522275624 -214.70298579939 243.42122275624 -216.75098579939 244.41322275624 C -218.79898579939 245.40522275624 -219.98298579939 245.90122275624 -220.30298579939 245.90122275624 C -221.58298579939 245.90122275624 -222.60698579939 245.26122275624 -223.37498579939 243.98122275624 C -224.14298579939 242.70122275624 -224.52698579939 241.29322275624 -224.52698579939 239.75722275624 C -224.52698579939 237.90122275624 -222.87898579939 236.28522275624 -219.58298579939 234.90922275624 C -216.28698579939 233.53322275624 -212.81498579939 232.84522275624 -209.16698579939 232.84522275624 C -202.19098579939 232.84522275624 -197.00698579939 234.62122275624 -193.61498579939 238.17322275624 C -190.22298579939 241.72522275624 -188.52698579939 246.18922275624 -188.52698579939 251.56522275624 L -188.52698579939 275.08522275624 C -188.52698579939 276.17322275624 -189.10298579939 277.10122275624 -190.25498579939 277.86922275624 C -191.40698579939 278.63722275624 -192.84698579939 279.02122275624 -194.57498579939 279.02122275624 C -196.17498579939 279.02122275624 -197.50298579939 278.63722275624 -198.55898579939 277.86922275624 C -199.61498579939 277.10122275624 -200.14298579939 276.17322275624 -200.14298579939 275.08522275624 L -200.14298579939 272.30122275624 C -204.55898579939 277.35722275624 -209.42298579939 279.88522275624 -214.73498579939 279.88522275624 C -218.38298579939 279.88522275624 -221.37498579939 278.79722275624 -223.71098579939 276.62122275624 C -226.04698579939 274.44522275624 -227.21498579939 271.27722275624 -227.21498579939 267.11722275624 Z M -214.83098579939 265.48522275624 C -214.83098579939 267.21322275624 -214.36698579939 268.50922275624 -213.43898579939 269.37322275624 C -212.51098579939 270.23722275624 -211.27898579939 270.66922275624 -209.74298579939 270.66922275624 C -207.69498579939 270.66922275624 -205.71098579939 269.70922275624 -203.79098579939 267.78922275624 C -201.87098579939 265.86922275624 -200.91098579939 263.75722275624 -200.91098579939 261.45322275624 L -200.91098579939 259.43722275624 L -202.35098579939 259.43722275624 C -206.25498579939 259.43722275624 -209.31098579939 259.83722275624 -211.51898579939 260.63722275624 C -213.72698579939 261.43722275624 -214.83098579939 263.05322275624 -214.83098579939 265.48522275624 Z M -179.31098579939 275.08522275624 L -179.31098579939 237.26122275624 C -179.31098579939 236.10922275624 -178.75098579939 235.18122275624 -177.63098579939 234.47722275624 C -176.51098579939 233.77322275624 -175.05498579939 233.42122275624 -173.26298579939 233.42122275624 C -171.66298579939 233.42122275624 -170.33498579939 233.77322275624 -169.27898579939 234.47722275624 C -168.22298579939 235.18122275624 -167.69498579939 236.10922275624 -167.69498579939 237.26122275624 L -167.69498579939 241.19722275624 C -166.67098579939 238.95722275624 -165.07098579939 237.00522275624 -162.89498579939 235.34122275624 C -160.71898579939 233.67722275624 -158.38298579939 232.84522275624 -155.88698579939 232.84522275624 L -152.91098579939 232.84522275624 C -151.75898579939 232.84522275624 -150.71898579939 233.38922275624 -149.79098579939 234.47722275624 C -148.86298579939 235.56522275624 -148.39898579939 236.81322275624 -148.39898579939 238.22122275624 C -148.39898579939 239.69322275624 -148.86298579939 240.97322275624 -149.79098579939 242.06122275624 C -150.71898579939 243.14922275624 -151.75898579939 243.69322275624 -152.91098579939 243.69322275624 L -155.88698579939 243.69322275624 C -158.83098579939 243.69322275624 -161.40698579939 245.00522275624 -163.61498579939 247.62922275624 C -165.82298579939 250.25322275624 -166.92698579939 253.67722275624 -166.92698579939 257.90122275624 L -166.92698579939 275.08522275624 C -166.92698579939 276.04522275624 -167.56698579939 276.94122275624 -168.84698579939 277.77322275624 C -170.12698579939 278.60522275624 -171.59898579939 279.02122275624 -173.26298579939 279.02122275624 C -174.99098579939 279.02122275624 -176.43098579939 278.62122275624 -177.58298579939 277.82122275624 C -178.73498579939 277.02122275624 -179.31098579939 276.10922275624 -179.31098579939 275.08522275624 Z M -143.79098579939 217.19722275624 C -143.79098579939 215.53322275624 -143.13498579939 214.10922275624 -141.82298579939 212.92522275624 C -140.51098579939 211.74122275624 -138.89498579939 211.14922275624 -136.97498579939 211.14922275624 C -135.11898579939 211.14922275624 -133.53498579939 211.74122275624 -132.22298579939 212.92522275624 C -130.91098579939 214.10922275624 -130.25498579939 215.53322275624 -130.25498579939 217.19722275624 C -130.25498579939 218.79722275624 -130.91098579939 220.20522275624 -132.22298579939 221.42122275624 C -133.53498579939 222.63722275624 -135.11898579939 223.24522275624 -136.97498579939 223.24522275624 C -138.89498579939 223.24522275624 -140.51098579939 222.63722275624 -141.82298579939 221.42122275624 C -143.13498579939 220.20522275624 -143.79098579939 218.79722275624 -143.79098579939 217.19722275624 Z M -143.11898579939 275.08522275624 L -143.11898579939 237.26122275624 C -143.11898579939 236.10922275624 -142.54298579939 235.18122275624 -141.39098579939 234.47722275624 C -140.23898579939 233.77322275624 -138.76698579939 233.42122275624 -136.97498579939 233.42122275624 C -135.18298579939 233.42122275624 -133.69498579939 233.77322275624 -132.51098579939 234.47722275624 C -131.32698579939 235.18122275624 -130.73498579939 236.10922275624 -130.73498579939 237.26122275624 L -130.73498579939 275.08522275624 C -130.73498579939 276.04522275624 -131.35898579939 276.94122275624 -132.60698579939 277.77322275624 C -133.85498579939 278.60522275624 -135.31098579939 279.02122275624 -136.97498579939 279.02122275624 C -138.70298579939 279.02122275624 -140.15898579939 278.62122275624 -141.34298579939 277.82122275624 C -142.52698579939 277.02122275624 -143.11898579939 276.10922275624 -143.11898579939 275.08522275624 Z M -123.82298579939 267.11722275624 C -123.82298579939 261.93322275624 -121.90298579939 258.28522275624 -118.06298579939 256.17322275624 C -114.22298579939 254.06122275624 -108.68698579939 253.00522275624 -101.45498579939 253.00522275624 L -97.51898579939 253.00522275624 L -97.51898579939 251.75722275624 C -97.51898579939 249.38922275624 -98.20698579939 247.32522275624 -99.58298579939 245.56522275624 C -100.95898579939 243.80522275624 -103.08698579939 242.92522275624 -105.96698579939 242.92522275624 C -108.84698579939 242.92522275624 -111.31098579939 243.42122275624 -113.35898579939 244.41322275624 C -115.40698579939 245.40522275624 -116.59098579939 245.90122275624 -116.91098579939 245.90122275624 C -118.19098579939 245.90122275624 -119.21498579939 245.26122275624 -119.98298579939 243.98122275624 C -120.75098579939 242.70122275624 -121.13498579939 241.29322275624 -121.13498579939 239.75722275624 C -121.13498579939 237.90122275624 -119.48698579939 236.28522275624 -116.19098579939 234.90922275624 C -112.89498579939 233.53322275624 -109.42298579939 232.84522275624 -105.77498579939 232.84522275624 C -98.79898579939 232.84522275624 -93.61498579939 234.62122275624 -90.22298579939 238.17322275624 C -86.83098579939 241.72522275624 -85.13498579939 246.18922275624 -85.13498579939 251.56522275624 L -85.13498579939 275.08522275624 C -85.13498579939 276.17322275624 -85.71098579939 277.10122275624 -86.86298579939 277.86922275624 C -88.01498579939 278.63722275624 -89.45498579939 279.02122275624 -91.18298579939 279.02122275624 C -92.78298579939 279.02122275624 -94.11098579939 278.63722275624 -95.16698579939 277.86922275624 C -96.22298579939 277.10122275624 -96.75098579939 276.17322275624 -96.75098579939 275.08522275624 L -96.75098579939 272.30122275624 C -101.16698579939 277.35722275624 -106.03098579939 279.88522275624 -111.34298579939 279.88522275624 C -114.99098579939 279.88522275624 -117.98298579939 278.79722275624 -120.31898579939 276.62122275624 C -122.65498579939 274.44522275624 -123.82298579939 271.27722275624 -123.82298579939 267.11722275624 Z M -111.43898579939 265.48522275624 C -111.43898579939 267.21322275624 -110.97498579939 268.50922275624 -110.04698579939 269.37322275624 C -109.11898579939 270.23722275624 -107.88698579939 270.66922275624 -106.35098579939 270.66922275624 C -104.30298579939 270.66922275624 -102.31898579939 269.70922275624 -100.39898579939 267.78922275624 C -98.47898579939 265.86922275624 -97.51898579939 263.75722275624 -97.51898579939 261.45322275624 L -97.51898579939 259.43722275624 L -98.95898579939 259.43722275624 C -102.86298579939 259.43722275624 -105.91898579939 259.83722275624 -108.12698579939 260.63722275624 C -110.33498579939 261.43722275624 -111.43898579939 263.05322275624 -111.43898579939 265.48522275624 Z"/></svg>