<?xml version="1.0" encoding="UTF-8"?>
<svg version="1.1" xmlns="http://www.w3.org/2000/svg" width="730" height="250">
<path d="M0 0 C240.9 0 481.8 0 730 0 C730 82.5 730 165 730 250 C489.1 250 248.2 250 0 250 C0 167.5 0 85 0 0 Z " fill="#B90909" transform="translate(0,0)"/>
<path d="M0 0 C29.91128816 7.21996611 59.06058527 29.51790812 82.25 48.9375 C82.77456787 49.37360596 83.29913574 49.80971191 83.83959961 50.2590332 C86.95986583 52.91768221 89.53927227 55.72488856 92 59 C91.27554688 59.10957031 90.55109375 59.21914062 89.8046875 59.33203125 C81.42266495 60.70668295 75.77767365 62.46210613 70 69 C69.525625 69.93585938 69.05125 70.87171875 68.5625 71.8359375 C65.37556168 76.65328214 59.76823733 78.20734122 54.625 80.3125 C52.97576538 81.01209839 52.97576538 81.01209839 51.29321289 81.72583008 C47.87027003 83.1710072 44.43693009 84.58844738 41 86 C39.90252441 86.4547168 38.80504883 86.90943359 37.67431641 87.37792969 C31.46270101 89.95156909 25.23946482 92.49463945 19 95 C32.76736001 89.96088495 46.52295001 84.92094885 60.08105469 79.33789062 C65.79940878 77 65.79940878 77 68 77 C68.165 76.154375 68.33 75.30875 68.5 74.4375 C71.08812785 68.50637367 75.86249643 65.22708539 81.375 62.0625 C86.00815992 60.70450485 90.21029928 60.73979493 95 61 C97.76359601 67.03569368 98.18097447 73.6882543 96.41796875 80.125 C91.24720764 90.70263003 77.38071646 93.70228639 67.17919922 97.23779297 C64.49776798 98.17566305 61.84382546 99.1810171 59.1875 100.1875 C54.27194965 101.96817121 49.28219811 103.3871741 44.24609375 104.78515625 C40.84685632 105.74158608 37.47195119 106.76767326 34.09765625 107.80859375 C33.0622168 108.12787842 32.02677734 108.44716309 30.95996094 108.77612305 C28.88277163 109.41884009 26.80657352 110.0647705 24.73144531 110.71411133 C23.77463867 111.00954834 22.81783203 111.30498535 21.83203125 111.609375 C20.97327393 111.87717773 20.1145166 112.14498047 19.22973633 112.42089844 C17 113 17 113 14 113 C14.04640625 113.75925781 14.0928125 114.51851563 14.140625 115.30078125 C14.17671875 116.29464844 14.2128125 117.28851563 14.25 118.3125 C14.29640625 119.29863281 14.3428125 120.28476563 14.390625 121.30078125 C14 124 14 124 12.1796875 125.86328125 C9.09268779 127.4731682 7.27235742 126.99593487 4 126 C2 123 2 123 1 118 C-6.26 119.98 -13.52 121.96 -21 124 C-21.20963623 130.40141089 -21.20963623 130.40141089 -21.38793945 136.80371094 C-21.43760864 138.00688965 -21.43760864 138.00688965 -21.48828125 139.234375 C-21.51446533 140.05131836 -21.54064941 140.86826172 -21.56762695 141.70996094 C-22.10140405 144.53708074 -23.00051219 145.94523614 -25 148 C-28.5 148.5 -28.5 148.5 -32 148 C-34.85160152 145.46814328 -35.00308513 143.95902944 -35.29296875 140.109375 C-35.27314945 138.65595991 -35.23754845 137.20268833 -35.1875 135.75 C-35.17396484 135.00492188 -35.16042969 134.25984375 -35.14648438 133.4921875 C-35.11127204 131.66114584 -35.05746851 129.83047831 -35 128 C-36.32 128.33 -37.64 128.66 -39 129 C-39.10957031 129.68707031 -39.21914062 130.37414062 -39.33203125 131.08203125 C-39.56986328 132.43361328 -39.56986328 132.43361328 -39.8125 133.8125 C-39.96332031 134.70582031 -40.11414063 135.59914062 -40.26953125 136.51953125 C-41.06467176 139.21960731 -41.78467936 140.30560872 -44 142 C-46.4375 142.5 -46.4375 142.5 -49 142 C-51.3125 139.75 -51.3125 139.75 -53 137 C-53 135.68 -53 134.36 -53 133 C-54.21816406 133.3609375 -55.43632813 133.721875 -56.69140625 134.09375 C-58.31496371 134.56298626 -59.93866962 135.03170909 -61.5625 135.5 C-62.36236328 135.73847656 -63.16222656 135.97695312 -63.98632812 136.22265625 C-75.3147823 139.45935744 -75.3147823 139.45935744 -80.875 136.4375 C-83.71227043 133.18298392 -84.07297107 131.3052932 -84 127 C-81.36258261 121.8118409 -78.10328764 117.28888954 -74.5625 112.6875 C-70.17146392 106.90843045 -65.85877817 101.08277306 -61.625 95.1875 C-57.1247481 88.92713157 -52.5830046 82.7000509 -48 76.5 C-42.92527014 69.63307669 -37.89938607 62.73352833 -32.91870117 55.7980957 C-30.0280539 51.78057844 -27.10698212 47.78916359 -24.14453125 43.82421875 C-23.18546875 42.53741211 -23.18546875 42.53741211 -22.20703125 41.22460938 C-20.97346145 39.57264322 -19.73539978 37.9240187 -18.4921875 36.27929688 C-14.19680078 30.52070105 -12.09716743 25.90240039 -10.75 18.8125 C-9.11258129 11.46082414 -6.45481675 4.30321117 0 0 Z " fill="#FDFAFA" transform="translate(113,73)"/>
<path d="M0 0 C0.79472717 -0.00615326 1.58945435 -0.01230652 2.40826416 -0.01864624 C3.68488922 0.00291031 3.68488922 0.00291031 4.98730469 0.02490234 C5.87270935 0.02581879 6.75811401 0.02673523 7.67034912 0.02767944 C9.54314534 0.0337162 11.41593187 0.04946451 13.28857422 0.07421875 C16.1351337 0.11053308 18.98038233 0.11523921 21.82714844 0.11474609 C23.65137829 0.12458567 25.47559941 0.13624632 27.29980469 0.14990234 C28.14279114 0.15212799 28.98577759 0.15435364 29.85430908 0.15664673 C39.48310265 0.30882697 47.39183308 2.49158253 54.63964844 9.05224609 C61.29725844 16.13725822 62.45533192 24.51080523 62.34667969 33.92333984 C62.33838135 34.84840332 62.33008301 35.7734668 62.3215332 36.7265625 C62.10465104 45.46205134 60.63954836 51.79201384 54.65917969 58.36083984 C45.53503913 66.64665125 35.3265713 67.79376399 23.47167969 67.61083984 C22.35857422 67.60181641 21.24546875 67.59279297 20.09863281 67.58349609 C17.36858946 67.56006225 14.63899959 67.52725385 11.90917969 67.48583984 C11.93012695 68.52514648 11.95107422 69.56445312 11.97265625 70.63525391 C12.04513643 74.49660426 12.091008 78.35789468 12.12890625 82.21972656 C12.14900361 83.89007687 12.17628652 85.56035697 12.2109375 87.23046875 C12.25954088 89.63347705 12.28216624 92.03555418 12.29980469 94.43896484 C12.32044983 95.18390198 12.34109497 95.92883911 12.36236572 96.6963501 C12.36388616 100.22122756 12.20654986 102.10376886 10.00976562 104.92626953 C7.04461116 107.12773475 5.24673089 107.68178359 1.59667969 107.79833984 C0.45779297 107.85441406 0.45779297 107.85441406 -0.70410156 107.91162109 C-4.23733436 107.28130624 -5.63713659 106.1197017 -8.09082031 103.48583984 C-8.84438522 100.33449566 -8.7636178 97.23472819 -8.72192383 94.00732422 C-8.72907913 93.0475618 -8.73623444 92.08779938 -8.74360657 91.09895325 C-8.76052004 87.92534843 -8.74107487 84.75315092 -8.71972656 81.57958984 C-8.72055501 79.37528364 -8.72301349 77.17097749 -8.72703552 74.9666748 C-8.72989535 70.3464092 -8.71517375 65.72662787 -8.68774414 61.10644531 C-8.65366154 55.18105801 -8.65967809 49.25653685 -8.67840672 43.33110809 C-8.68897008 38.77920297 -8.68004482 34.22749975 -8.6650219 29.6756134 C-8.65983478 27.49071349 -8.66032828 25.30579255 -8.66656685 23.12089539 C-8.67201088 20.06825344 -8.65166918 17.0168557 -8.62426758 13.96435547 C-8.63079346 13.05929764 -8.63731934 12.15423981 -8.64404297 11.22175598 C-8.55125423 5.14943601 -8.55125423 5.14943601 -6.31315613 1.92379761 C-3.93279638 0.38359079 -2.80033954 -0.0114778 0 0 Z " fill="#FDF9F9" transform="translate(267.0908203125,58.51416015625)"/>
<path d="M0 0 C0.89912109 -0.02449219 1.79824219 -0.04898438 2.72460938 -0.07421875 C10.68524025 -0.10875511 18.33758994 2.10005876 24.28466797 7.703125 C32.82020249 17.87565205 32.59789967 28.62305647 32.41479492 41.28662109 C32.3747181 44.39687746 32.39425902 47.50294334 32.41992188 50.61328125 C32.41237169 52.59637068 32.40142725 54.57945075 32.38671875 56.5625 C32.3971949 57.95154541 32.3971949 57.95154541 32.40788269 59.36865234 C32.26717076 65.75565306 32.26717076 65.75565306 29.27270508 68.95507812 C25.56106969 70.99369097 22.80894975 71.19928995 18.6875 70.375 C15.75 68.6875 15.75 68.6875 13.6875 66.375 C13.05859375 63.73046875 13.05859375 63.73046875 12.6875 61.375 C12.17960938 61.84550781 11.67171875 62.31601563 11.1484375 62.80078125 C10.46007812 63.42339844 9.77171875 64.04601562 9.0625 64.6875 C8.05316406 65.60982422 8.05316406 65.60982422 7.0234375 66.55078125 C-0.00049953 72.03602974 -6.66521334 72.40161851 -15.3125 71.375 C-20.1064116 69.78683297 -23.20756969 67.11512627 -25.8125 62.8125 C-28.49132972 56.52617959 -28.5184015 48.77115917 -26.125 42.375 C-21.89770604 35.37809965 -14.67995868 32.82115467 -7.05078125 30.765625 C-3.19215801 30.21517946 0.60836356 30.27009323 4.5 30.3125 C5.68239258 30.31926758 5.68239258 30.31926758 6.88867188 30.32617188 C8.82164761 30.33788688 10.75458393 30.35582002 12.6875 30.375 C12.39746094 29.11558594 12.10742188 27.85617188 11.80859375 26.55859375 C11.56387329 25.49596313 11.56387329 25.49596313 11.31420898 24.41186523 C10.4007834 21.44314312 8.86338287 19.55088287 6.6875 17.375 C-0.91957967 14.83930678 -8.28478807 15.93285538 -15.3125 19.375 C-18.0625 19.875 -18.0625 19.875 -20.3125 19.375 C-22.74285856 16.60941957 -23.29083154 14.4963434 -23.9375 10.875 C-23.26437311 7.10548939 -23.06330251 6.71935188 -20.1875 4.5625 C-13.77973902 0.39033563 -7.42451257 0.01050886 0 0 Z " fill="#FDFAFA" transform="translate(525.3125,95.625)"/>
<path d="M0 0 C1.46481812 0.00966797 1.46481812 0.00966797 2.95922852 0.01953125 C12.50329153 0.26279403 18.39887415 2.3894297 25.0625 9.3125 C30.86359301 15.9972976 31.59191831 23.5225247 31.59375 31.984375 C31.60517029 33.45139862 31.60517029 33.45139862 31.61682129 34.94805908 C31.62756937 37.00196796 31.63049709 39.05593126 31.62597656 41.10986328 C31.6249984 44.25514611 31.6668015 47.39803379 31.7109375 50.54296875 C31.71614077 52.54426576 31.71883275 54.54557122 31.71875 56.546875 C31.7433429 57.95474274 31.7433429 57.95474274 31.76843262 59.39105225 C31.69938232 65.88252736 31.69938232 65.88252736 28.71679688 69.08886719 C25.00364127 71.11053631 22.24173887 71.33166442 18.125 70.5 C15.16050245 68.73391635 13.48245901 67.7166928 12.49609375 64.359375 C12.37363281 63.74578125 12.25117187 63.1321875 12.125 62.5 C11.61710938 62.89832031 11.10921875 63.29664063 10.5859375 63.70703125 C9.55339844 64.50173828 9.55339844 64.50173828 8.5 65.3125 C7.82710937 65.83457031 7.15421875 66.35664063 6.4609375 66.89453125 C-0.84675191 71.91704019 -7.1541945 72.56399793 -15.875 71.5 C-20.28046529 69.88044166 -23.00013979 67.65707318 -25.8125 63.9375 C-28.60018033 57.54223335 -29.31102715 49.7800614 -27.07421875 43.11328125 C-23.63764287 36.91327322 -18.34423291 34.18036119 -11.890625 31.75390625 C-4.18899853 29.58968951 4.20386328 30.33630257 12.125 30.5 C11.01092149 23.00826913 11.01092149 23.00826913 6.125 17.5 C-1.29498214 15.02667262 -8.01900202 16.20912097 -14.875 19.5 C-17.74436387 19.89127689 -19.12018527 19.9313227 -21.625 18.5 C-23.60921906 15.3252495 -24.21798325 12.22903066 -23.875 8.5 C-18.33065497 0.45175722 -8.94516439 -0.0611792 0 0 Z " fill="#FDFBFB" transform="translate(683.875,95.5)"/>
<path d="M0 0 C1.54210144 -0.00006042 1.54210144 -0.00006042 3.11535645 -0.00012207 C5.28741575 0.00523575 7.45947439 0.0228295 9.63134766 0.05175781 C12.95665712 0.09359784 16.27994058 0.09282775 19.60546875 0.0859375 C21.71615991 0.09643048 23.82684063 0.10936916 25.9375 0.125 C26.93237427 0.12520142 27.92724854 0.12540283 28.95227051 0.12561035 C29.88003296 0.14152222 30.80779541 0.15743408 31.76367188 0.17382812 C32.57767456 0.18224731 33.39167725 0.1906665 34.23034668 0.19934082 C37.03523475 0.69356525 38.42304274 1.632665 40.46875 3.59375 C41.64060061 10.10403118 38.99698533 14.38122133 35.46875 19.59375 C33.5805605 22.13824329 31.66005899 24.65216492 29.70141602 27.14282227 C24.18831452 34.15940492 19.03476964 41.43730384 13.84399414 48.69360352 C12.40799622 50.67769224 10.94351255 52.63835226 9.46875 54.59375 C10.3973584 54.60833252 11.3259668 54.62291504 12.28271484 54.63793945 C15.72341496 54.69894172 19.16330652 54.7730805 22.60351562 54.85620117 C24.09331572 54.88948463 25.58324295 54.91750597 27.07324219 54.94018555 C29.21344252 54.97367071 31.35247419 55.02597789 33.4921875 55.08203125 C35.42457275 55.12130737 35.42457275 55.12130737 37.39599609 55.16137695 C38.41000488 55.30406006 39.42401367 55.44674316 40.46875 55.59375 C42.53395632 58.69155948 42.76352024 59.5477981 42.78125 63.09375 C42.79800781 63.8671875 42.81476563 64.640625 42.83203125 65.4375 C42.37014415 68.17902345 41.64771981 68.89847067 39.46875 70.59375 C37.19874573 70.98143005 37.19874573 70.98143005 34.51000977 70.99780273 C33.50208878 71.01048691 32.49416779 71.02317108 31.45570374 71.03623962 C30.36817307 71.03330399 29.2806424 71.03036835 28.16015625 71.02734375 C26.48275612 71.03520653 26.48275612 71.03520653 24.77146912 71.04322815 C22.40519034 71.04965514 20.03887964 71.04830265 17.67260742 71.03979492 C14.04873816 71.03129104 10.42644757 71.06002936 6.80273438 71.09179688 C4.50520881 71.09340906 2.20768044 71.09283102 -0.08984375 71.08984375 C-1.17535019 71.10107773 -2.26085663 71.11231171 -3.3792572 71.12388611 C-4.39033035 71.11450516 -5.4014035 71.10512421 -6.44311523 71.09545898 C-7.77523293 71.09520973 -7.77523293 71.09520973 -9.13426208 71.09495544 C-12.31882791 70.42906901 -13.52143669 69.09916599 -15.53125 66.59375 C-16.36839873 62.56176838 -15.54333529 60.25091133 -13.36328125 56.921875 C-12.37104949 55.55204299 -11.36352086 54.19320582 -10.34375 52.84375 C-9.54203369 51.74752319 -9.54203369 51.74752319 -8.72412109 50.62915039 C-7.58770448 49.07635574 -6.4456138 47.52770025 -5.29833984 45.98291016 C-3.52854472 43.59009237 -1.78563998 41.17996224 -0.05078125 38.76171875 C5.05088703 31.65052179 10.19549572 24.57899315 15.46875 17.59375 C14.70208008 17.58964111 13.93541016 17.58553223 13.14550781 17.58129883 C9.66913955 17.54838865 6.19452979 17.47774547 2.71875 17.40625 C0.90890625 17.39754883 0.90890625 17.39754883 -0.9375 17.38867188 C-2.09765625 17.35966797 -3.2578125 17.33066406 -4.453125 17.30078125 C-6.05559082 17.27721558 -6.05559082 17.27721558 -7.69042969 17.25317383 C-11.47158287 16.37547576 -12.50953014 14.82987669 -14.53125 11.59375 C-15.13557079 7.96782526 -14.84768018 6.20455477 -13.15820312 2.94335938 C-9.11658169 -0.67156299 -5.24687957 -0.08646718 0 0 Z " fill="#FDFAFA" transform="translate(384.53125,95.40625)"/>
<path d="M0 0 C0.92783798 -0.00945648 1.85567596 -0.01891296 2.81163025 -0.02865601 C4.31168358 -0.01954697 4.31168358 -0.01954697 5.84204102 -0.01025391 C7.38626488 -0.01455917 7.38626488 -0.01455917 8.96168518 -0.01895142 C11.1396642 -0.02099359 13.3176615 -0.01545307 15.49560547 -0.00292969 C18.82960076 0.01310498 22.16238069 -0.00276528 25.49633789 -0.02197266 C27.61157494 -0.01998993 29.72681124 -0.01614565 31.84204102 -0.01025391 C33.339058 -0.01936295 33.339058 -0.01936295 34.86631775 -0.02865601 C35.79730789 -0.01919952 36.72829803 -0.00974304 37.6875 0 C38.50451889 0.00238678 39.32153778 0.00477356 40.16331482 0.00723267 C42.99097988 0.48702691 44.35839622 1.40078786 46.40844727 3.38818359 C47.48662157 8.87707098 46.44967204 11.85319193 43.53344727 16.57568359 C40.37260469 21.19051375 36.99056772 25.63016015 33.54394531 30.03466797 C29.69276156 34.96348652 26.00693626 40.00441271 22.34594727 45.07568359 C21.77344238 45.866604 21.2009375 46.65752441 20.61108398 47.47241211 C17.79185395 51.29619956 17.79185395 51.29619956 15.40844727 55.38818359 C16.79350464 55.3567627 16.79350464 55.3567627 18.20654297 55.32470703 C21.6338905 55.25651829 25.06051707 55.20637897 28.48828125 55.16845703 C29.97146988 55.148346 31.45457926 55.12105285 32.9375 55.08642578 C35.06994162 55.03788007 37.20133503 55.01521164 39.33422852 54.99755859 C40.61724854 54.97661133 41.90026855 54.95566406 43.22216797 54.93408203 C46.40844727 55.38818359 46.40844727 55.38818359 48.33105469 57.22509766 C49.78007041 60.13429306 49.74321495 62.17441383 49.40844727 65.38818359 C48.00844727 69.08818359 48.00844727 69.08818359 45.40844727 70.38818359 C43.79607228 70.49856615 42.1792824 70.54730059 40.56323242 70.56518555 C39.05123764 70.5844384 39.05123764 70.5844384 37.50869751 70.6040802 C36.41600555 70.61146713 35.3233136 70.61885406 34.19750977 70.62646484 C33.07782806 70.63453659 31.95814636 70.64260834 30.80453491 70.65092468 C28.43228711 70.66477193 26.06001934 70.67549121 23.68774414 70.68334961 C20.05520052 70.70058041 16.42356254 70.74446416 12.79125977 70.78857422 C10.48918314 70.79869925 8.18709876 70.80721594 5.88500977 70.81396484 C4.79636627 70.83147293 3.70772278 70.84898102 2.58609009 70.86701965 C1.57178925 70.86409409 0.5574884 70.86116852 -0.48754883 70.8581543 C-1.37864349 70.86402054 -2.26973816 70.86988678 -3.18783569 70.87593079 C-6.39910782 70.22431958 -7.60732541 68.94747873 -9.59155273 66.38818359 C-9.74160166 60.12364087 -6.94115657 56.3582001 -3.34155273 51.57568359 C-2.81231201 50.85010254 -2.28307129 50.12452148 -1.73779297 49.37695312 C-0.61280055 47.83596249 0.51763672 46.29893427 1.65307617 44.765625 C4.01454877 41.56729118 6.33421774 38.33960785 8.65551758 35.11206055 C10.26527238 32.87528253 11.88075072 30.6427729 13.49829102 28.41162109 C16.15162775 24.74887234 18.7837298 21.07148877 21.40844727 17.38818359 C20.25058716 17.37416504 20.25058716 17.37416504 19.06933594 17.35986328 C15.57755145 17.30623654 12.08711795 17.22257343 8.59594727 17.13818359 C6.77353516 17.11691406 6.77353516 17.11691406 4.91430664 17.09521484 C3.75092773 17.06298828 2.58754883 17.03076172 1.38891602 16.99755859 C0.31536865 16.97661133 -0.75817871 16.95566406 -1.86425781 16.93408203 C-4.59155273 16.38818359 -4.59155273 16.38818359 -6.44042969 14.4909668 C-7.76115199 12.07837269 -7.99433811 10.5625433 -7.96655273 7.82568359 C-7.97428711 7.06126953 -7.98202148 6.29685547 -7.98999023 5.50927734 C-7.13085933 0.9356687 -4.29734209 0.01256618 0 0 Z " fill="#FDFAFA" transform="translate(442.591552734375,95.61181640625)"/>
<path d="M0 0 C10.04352624 4.09561828 16.31425408 9.84349598 21 19.6875 C25.62031489 32.18584333 22.38393338 44.8276261 19.97265625 57.484375 C19.01101718 62.63620818 18.42609725 67.77870821 18 73 C20.31 73 22.62 73 25 73 C27.01512227 68.78134972 27.41354068 64.79114568 27.625 60.1875 C27.68300781 59.14819336 27.68300781 59.14819336 27.7421875 58.08789062 C27.83573568 56.39232985 27.91892364 54.69620288 28 53 C37.06765179 56.34805605 41.72408493 62.51647522 46 71 C48.83864288 77.70951954 48.17876463 84.83948324 48 92 C47.67 92 47.34 92 47 92 C46.86464844 91.11699219 46.72929687 90.23398438 46.58984375 89.32421875 C44.93629004 80.10590435 42.3299799 71.31831412 34.77734375 65.19921875 C34.19082031 64.80347656 33.60429687 64.40773438 33 64 C32.8453125 65.8253125 32.8453125 65.8253125 32.6875 67.6875 C32.09265295 72.48876545 30.42986371 75.57013629 27 79 C22.43077852 79.77200992 18.94980781 79.59362988 15 77.125 C11.6859751 73.60384855 11.7878695 71.20613651 11.83984375 66.55908203 C12.10904839 62.25755308 13.07459358 58.1376928 14 53.9375 C16.35980197 42.36064939 18.79461776 28.96923527 13 18 C12.02746829 16.64650088 11.03302192 15.30791571 10 14 C9.98582031 14.6290625 9.97164063 15.258125 9.95703125 15.90625 C9.59140512 22.46775674 8.32813258 26.99376289 4 32 C-1.27114283 36.15487418 -7.05856639 38.28185373 -13.4375 40.125 C-15.04057987 40.60605398 -16.64344542 41.08782277 -18.24609375 41.5703125 C-19.03089111 41.80516357 -19.81568848 42.04001465 -20.62426758 42.28198242 C-29.1493427 44.76996208 -29.1493427 44.76996208 -36.9375 48.9375 C-38.03384766 49.66259766 -38.03384766 49.66259766 -39.15234375 50.40234375 C-41.94251408 52.81498575 -42.83040515 54.86282192 -43.37109375 58.48828125 C-43.53494943 65.45696675 -42.15332591 71.1401364 -39.79663086 77.62207031 C-37.50731205 84.04980513 -36.82708237 88.83312241 -39.25 95.375 C-41.72170925 99.08256388 -43.79858832 100.59952944 -48 102 C-61.52210806 103.17583548 -61.52210806 103.17583548 -65.75 99.8125 C-70.21537318 94.23078353 -70.4874831 88.94595271 -71 82 C-77.64148663 89.10484616 -83.0567858 97.285791 -83.17578125 107.26171875 C-83.19962891 108.29876953 -83.22347656 109.33582031 -83.24804688 110.40429688 C-83.29062842 112.57337486 -83.32208694 114.742703 -83.34179688 116.91210938 C-83.54268703 124.47585731 -84.46069047 130.3465192 -89.9375 136 C-92.60456914 137.29312443 -94.06620381 137.50089203 -97 137 C-99.8125 135 -99.8125 135 -102 133 C-102.28875 133.86625 -102.5775 134.7325 -102.875 135.625 C-103.55240289 137.65720868 -104.2667828 139.67836221 -105.05078125 141.671875 C-106.21366207 145.74913613 -106.34063917 149.40814428 -106.3125 153.625 C-106.31193604 154.41463135 -106.31137207 155.2042627 -106.31079102 156.01782227 C-106.21982665 161.86272854 -105.32869149 167.1213349 -103.55859375 172.71484375 C-103 175 -103 175 -104 178 C-110.18213134 165.366949 -115.06372476 152.16506172 -110.75 138.0625 C-108.38346168 132.0134511 -104.83586153 127.32682347 -100 123 C-99.34 123 -98.68 123 -98 123 C-97.34 125.64 -96.68 128.28 -96 131 C-92.87802522 129.6910428 -92.87802522 129.6910428 -91 127 C-90.88261733 125.37772069 -90.82117413 123.75120346 -90.7890625 122.125 C-90.74652344 120.64580078 -90.74652344 120.64580078 -90.703125 119.13671875 C-90.65182406 117.07698601 -90.60733502 115.0170701 -90.5703125 112.95703125 C-90.14939787 99.40007268 -85.58773252 87.80563553 -76 78 C-70.97954571 74.08488942 -65.81735631 70.60250151 -60 68 C-60.65536482 70.83143052 -61.53808845 73.4705824 -62.5625 76.1875 C-64.68187829 82.46292742 -64.65456113 88.58857562 -63 95 C-57.70280032 96.76573323 -52.23346883 96.62537127 -46.875 95.125 C-44.23561568 92.13369777 -44.32082658 89.98695982 -44.4921875 86.07421875 C-45.09732207 82.41082716 -46.24308506 79.04065294 -47.5 75.5625 C-50.29518655 67.79462884 -51.8471931 60.60014347 -48.5 52.75 C-42.79211751 42.94208925 -32.70317897 38.54845893 -22.22265625 35.7109375 C-20.40755208 35.23697917 -18.59244792 34.76302083 -16.77734375 34.2890625 C-10.35745432 32.5509265 -3.95368626 30.79056354 0.98046875 26.12890625 C4.57833272 18.61612516 1.74836485 7.78958981 0 0 Z " fill="#FAF0F0" transform="translate(127,4)"/>
<path d="M0 0 C3.125 2.0625 3.125 2.0625 5 5 C5.7653931 9.28620137 5.51261631 11.18688447 3.1875 14.875 C-0.20642334 17.13761556 -1.43882994 17.29425796 -5.375 17.5 C-10.97321867 17.79384997 -14.12344553 18.94999066 -18 23 C-21.59419571 28.39086717 -22.56678418 33.1700556 -22.46875 39.55078125 C-22.47579956 40.33140427 -22.48284912 41.11202728 -22.4901123 41.91630554 C-22.51197168 44.38204623 -22.50917645 46.84669188 -22.5 49.3125 C-22.48796963 52.58001124 -22.50156149 55.84591234 -22.53125 59.11328125 C-22.51993042 59.86015701 -22.50861084 60.60703278 -22.49694824 61.37654114 C-22.54740792 66.52563023 -22.54740792 66.52563023 -24.84179688 68.93041992 C-29.03428872 71.00816956 -32.34749378 71.40107812 -37 71 C-39.68612671 69.3605957 -39.68612671 69.3605957 -42 67 C-42.63491821 64.19213867 -42.63491821 64.19213867 -42.64697266 60.91796875 C-42.66273346 59.68989502 -42.67849426 58.46182129 -42.69473267 57.1965332 C-42.68578281 55.86017967 -42.6755278 54.52383432 -42.6640625 53.1875 C-42.66743221 51.81273978 -42.67228613 50.43798246 -42.67855835 49.06323242 C-42.68592268 46.18476949 -42.67524028 43.30708341 -42.65185547 40.42871094 C-42.62336561 36.74273348 -42.63977227 33.0585761 -42.66971779 29.37266541 C-42.68780405 26.53465104 -42.68202717 23.69706677 -42.66907883 20.85903931 C-42.66574837 19.5002928 -42.6698194 18.14150698 -42.68147659 16.7828064 C-42.69420299 14.88255582 -42.67135855 12.98216796 -42.64697266 11.08203125 C-42.64299469 10.00155518 -42.63901672 8.9210791 -42.63491821 7.80786133 C-42 5 -42 5 -39.67831421 2.6472168 C-36.16838965 0.48854301 -34.05961821 0.49254772 -30 1 C-27.1875 2.125 -27.1875 2.125 -25 4 C-23.6875 7.1875 -23.6875 7.1875 -23 10 C-22.34 9.278125 -21.68 8.55625 -21 7.8125 C-14.87063524 1.80331887 -8.8301169 -1.86295777 0 0 Z " fill="#FDFBFB" transform="translate(613,95)"/>
<path d="M0 0 C2.31279611 1.15639806 4.17409828 2.17409828 6 4 C6.12019216 5.91112213 6.17022019 7.82669115 6.19287109 9.74145508 C6.21696548 11.58390556 6.21696548 11.58390556 6.24154663 13.46357727 C6.25303331 14.81555493 6.26364198 16.16754028 6.2734375 17.51953125 C6.27876118 18.19764044 6.28408485 18.87574963 6.28956985 19.57440758 C6.31631939 23.1645838 6.33568714 26.75472506 6.35009766 30.3449707 C6.36673758 34.05435524 6.41150254 37.76284985 6.4624691 41.47189808 C6.49612599 44.32265748 6.50767329 47.17320546 6.51332474 50.02414513 C6.5200433 51.39133176 6.53528153 52.75850419 6.55921555 54.12549782 C6.59082231 56.04020857 6.58790546 57.9553948 6.58349609 59.87036133 C6.59158295 60.95988602 6.5996698 62.04941071 6.60800171 63.17195129 C6 66 6 66 3.60610962 68.34989929 C0.92217686 70.04927499 -0.37250565 70.54404922 -3.5 70.5 C-4.59828125 70.51546875 -4.59828125 70.51546875 -5.71875 70.53125 C-8.98213276 69.77128415 -10.61488476 68.33348688 -13 66 C-13.64164734 63.19213867 -13.64164734 63.19213867 -13.6628418 59.91796875 C-13.68183029 58.68989502 -13.70081879 57.46182129 -13.72038269 56.1965332 C-13.71475138 54.86018205 -13.70766139 53.52383635 -13.69921875 52.1875 C-13.70512921 50.81273785 -13.71237658 49.43798085 -13.72090149 48.06323242 C-13.73277397 45.18478539 -13.7260882 42.30711198 -13.70678711 39.42871094 C-13.68389214 35.74251874 -13.71068428 32.05863036 -13.75184917 28.37266541 C-13.77744235 25.53463113 -13.77484393 22.69714717 -13.76395607 19.85903931 C-13.76247064 18.50027371 -13.77014527 17.14146568 -13.78720665 15.7828064 C-13.89823783 5.22844708 -13.89823783 5.22844708 -11.73843384 2.2746582 C-8.02552513 -0.36291376 -4.39621907 -0.55951879 0 0 Z " fill="#FDF9F9" transform="translate(639,96)"/>
<path d="M0 0 C5.22580645 2.22580645 5.22580645 2.22580645 7 4 C7.11488583 5.88063756 7.15965804 7.76559462 7.17700195 9.6496582 C7.18983719 10.85793777 7.20267242 12.06621735 7.21589661 13.31111145 C7.22328354 14.62770248 7.23067047 15.94429352 7.23828125 17.30078125 C7.24235678 17.96785788 7.2464323 18.6349345 7.25063133 19.32222557 C7.27151059 22.85405546 7.28580324 26.3858463 7.29516602 29.91772461 C7.30622458 33.56644182 7.34061157 37.21454813 7.38033772 40.86304951 C7.40648695 43.6674869 7.41485635 46.47177854 7.41844749 49.27632713 C7.42568782 51.27498933 7.45213681 53.27355198 7.47883606 55.27204895 C7.47591049 56.489785 7.47298492 57.70752106 7.4699707 58.9621582 C7.47877007 60.5697979 7.47877007 60.5697979 7.48774719 62.20991516 C6.87760945 65.70011683 5.75975081 66.84509774 3 69 C-0.60572704 70.20190901 -3.2102435 70.32670315 -7 70 C-9.68612671 68.3605957 -9.68612671 68.3605957 -12 66 C-12.63491821 63.19213867 -12.63491821 63.19213867 -12.64697266 59.91796875 C-12.66273346 58.68989502 -12.67849426 57.46182129 -12.69473267 56.1965332 C-12.68578281 54.86017967 -12.6755278 53.52383432 -12.6640625 52.1875 C-12.66743221 50.81273978 -12.67228613 49.43798246 -12.67855835 48.06323242 C-12.68592268 45.18476949 -12.67524028 42.30708341 -12.65185547 39.42871094 C-12.62336561 35.74273348 -12.63977227 32.0585761 -12.66971779 28.37266541 C-12.68780405 25.53465104 -12.68202717 22.69706677 -12.66907883 19.85903931 C-12.66574837 18.5002928 -12.6698194 17.14150698 -12.68147659 15.7828064 C-12.69420299 13.88255582 -12.67135855 11.98216796 -12.64697266 10.08203125 C-12.64299469 9.00155518 -12.63901672 7.9210791 -12.63491821 6.80786133 C-12 4 -12 4 -9.67440796 1.6472168 C-6.151541 -0.52258142 -4.08106907 -0.50118392 0 0 Z " fill="#FDFAFA" transform="translate(352,96)"/>
<path d="M0 0 C3.34125 -0.061875 6.6825 -0.12375 10.125 -0.1875 C11.68758545 -0.22846802 11.68758545 -0.22846802 13.28173828 -0.27026367 C18.61336181 -0.31794986 22.42317078 -0.06089054 27 3 C31.44880145 7.92975295 32.17223376 10.63986987 32.25 17.25 C32.27578125 18.55453125 32.3015625 19.8590625 32.328125 21.203125 C31.87182231 26.48319897 30.38188693 29.72175459 26.5 33.3125 C22.93291971 35.7202792 20.31321853 36.12311042 16.11328125 36.09765625 C15.26805908 36.09515869 14.42283691 36.09266113 13.55200195 36.09008789 C12.48296631 36.08098389 11.41393066 36.07187988 10.3125 36.0625 C5.2078125 36.0315625 5.2078125 36.0315625 0 36 C0 24.12 0 12.24 0 0 Z " fill="#BB1010" transform="translate(278,75)"/>
<path d="M0 0 C6.35553272 2.14674177 12.22677481 4.94823383 18.15795898 8.07006836 C19.16068848 8.59648926 20.16341797 9.12291016 21.1965332 9.6652832 C37.16631316 18.1992374 53.56264369 28.55974272 66.22045898 41.63256836 C62.91176473 40.38910011 59.99138498 38.99157012 57.01733398 37.08569336 C55.81270508 36.32301147 55.81270508 36.32301147 54.58374023 35.54492188 C53.72135742 34.99634521 52.85897461 34.44776855 51.97045898 33.88256836 C43.83296569 28.78004264 35.59415519 23.90004683 27.22045898 19.19506836 C25.71950684 18.3457373 25.71950684 18.3457373 24.18823242 17.47924805 C9.07852752 8.75247269 9.07852752 8.75247269 -7.77954102 5.63256836 C-2.97438287 -0.61413722 -2.97438287 -0.61413722 0 0 Z " fill="#BD1919" transform="translate(120.779541015625,79.367431640625)"/>
<path d="M0 0 C0.66 0.495 1.32 0.99 2 1.5 C1.63373083 7.84866553 1.63373083 7.84866553 -1.25 10.8125 C-5.73348476 13.56372928 -9.34393975 14.79067744 -14.625 14.8125 C-15.56601563 14.82925781 -16.50703125 14.84601563 -17.4765625 14.86328125 C-20 14.5 -20 14.5 -21.83203125 13.16015625 C-23 11.5 -23 11.5 -23.0625 8.625 C-21.40036145 3.7363572 -18.03112654 1.62246467 -13.625 -0.8125 C-8.70364898 -2.10142527 -4.60042449 -2.30021224 0 0 Z " fill="#BB1010" transform="translate(83,166.5)"/>
<path d="M0 0 C3.42889506 2.44921075 4.74680502 3.80998361 5.625 7.9375 C4.80904909 11.93565945 3.24645506 14.58275997 0 17 C-2.74563492 18.06555442 -5.07653584 18.35470602 -8 18 C-11.79560358 16.03190926 -13.6288722 14.5566917 -16 11 C-16 6.46985575 -15.42169517 4.50603421 -12.5 1 C-8.49665507 -1.91327752 -4.54757437 -1.51307162 0 0 Z " fill="#FCF5F5" transform="translate(641,63)"/>
<path d="M0 0 C2.5647293 1.50012468 4.89183465 2.89183465 7 5 C7.71194379 12.11943794 7.71194379 12.11943794 4.625 15.9375 C0.81664721 18.9297772 -1.155128 19.37998996 -6 19 C-9.49406769 17.33237678 -10.82670681 16.25993978 -13 13 C-13.4375 9.625 -13.4375 9.625 -13 6 C-8.97224931 1.1243018 -6.32056233 -0.60774638 0 0 Z " fill="#FCF6F6" transform="translate(352,62)"/>
<path d="M0 0 C1.71316406 -0.03867188 1.71316406 -0.03867188 3.4609375 -0.078125 C6.88711467 0.27718226 8.24549382 0.80168882 10.625 3.25 C11.1875 6.1875 11.1875 6.1875 10.625 9.25 C6.43240866 13.56237967 2.11037846 15.32736792 -3.8125 15.625 C-8.31662975 15.51202016 -11.03940704 14.41453691 -14.375 11.25 C-15.125 8.8125 -15.125 8.8125 -14.375 6.25 C-9.41948916 1.50994616 -6.73651836 0.09082946 0 0 Z " fill="#BA0F0F" transform="translate(141.375,133.75)"/>
<path d="M0 0 C-0.1638736 6.7039198 -1.09098811 10.31931425 -6 15 C-9.45836856 17.53613694 -12.80901873 17.44903371 -17 17 C-19.4375 15.5 -19.4375 15.5 -21 13 C-21.61778506 9.51091847 -21.75531473 6.25885788 -19.875 3.125 C-13.54029003 -0.67582598 -7.16080092 -0.20856702 0 0 Z " fill="#BB1010" transform="translate(696,136)"/>
<path d="M0 0 C-0.1638736 6.7039198 -1.09098811 10.31931425 -6 15 C-9.67175001 17.78546552 -13.57806641 17.42113653 -18 17 C-20 15.5 -20 15.5 -21 13 C-21.49154341 9.5100418 -21.75068125 6.25113541 -19.875 3.125 C-13.54029003 -0.67582598 -7.16080092 -0.20856702 0 0 Z " fill="#BB1010" transform="translate(538,136)"/>
<path d="M0 0 C3 2 3 2 3.5 4.375 C3 7 3 7 0.75 9.1875 C-0.1575 9.785625 -1.065 10.38375 -2 11 C-2.598125 11.4125 -3.19625 11.825 -3.8125 12.25 C-7.30992572 13.44911739 -10.30509561 13.2345971 -14 13 C-14.99 12.34 -15.98 11.68 -17 11 C-17 8.3125 -17 8.3125 -16 5 C-11.19736871 0.36504162 -6.47995308 -0.76880799 0 0 Z " fill="#BC1616" transform="translate(110,141)"/>
<path d="M0 0 C-0.88042969 0.43570313 -1.76085937 0.87140625 -2.66796875 1.3203125 C-12.67548494 6.07231071 -12.67548494 6.07231071 -18.65112305 14.97094727 C-20.75599457 18.1372074 -23.96569281 18.98205956 -27.39453125 20.27734375 C-28.13773117 20.57057022 -28.88093109 20.86379669 -29.64665222 21.16590881 C-32.03039458 22.10284008 -34.42109602 23.0203251 -36.8125 23.9375 C-38.38005077 24.5501712 -39.94711403 25.16409127 -41.51367188 25.77929688 C-44.56804853 26.97637713 -47.6267865 28.16102197 -50.68994141 29.33544922 C-53.44828701 30.39428489 -56.19437127 31.47698093 -58.93115234 32.59033203 C-60.09211426 33.05681152 -61.25307617 33.52329102 -62.44921875 34.00390625 C-63.45686279 34.41584229 -64.46450684 34.82777832 -65.50268555 35.25219727 C-68 36 -68 36 -71 35 C-69.2531189 34.2589502 -69.2531189 34.2589502 -67.47094727 33.50292969 C-63.11515138 31.65490433 -58.75978456 29.80586962 -54.40454102 27.95654297 C-52.52607567 27.15907061 -50.64749691 26.36186533 -48.76879883 25.56494141 C-46.05519615 24.41380335 -43.34201432 23.26167824 -40.62890625 22.109375 C-39.80040665 21.75816589 -38.97190704 21.40695679 -38.11830139 21.04510498 C-35.74309222 20.03568032 -33.37144752 19.01822464 -31 18 C-30.1647731 17.64776367 -29.3295462 17.29552734 -28.4690094 16.93261719 C-27.66148727 16.58585937 -26.85396515 16.23910156 -26.02197266 15.88183594 C-25.29652252 15.57340759 -24.57107239 15.26497925 -23.82363892 14.94720459 C-21.26238825 13.61688181 -20.14812888 12.02429536 -18.8125 9.5 C-15.72393956 4.31836555 -12.4395205 2.02459861 -6.875 -0.3125 C-3.94172949 -1.01393425 -2.79496921 -0.83369253 0 0 Z " fill="#C43030" transform="translate(201,133)"/>
<path d="M0 0 C0.66 0.66 1.32 1.32 2 2 C1.7603518 4.47636473 1.19869504 5.75614699 -0.375 7.6875 C-4.17879353 10.75979477 -8.38288963 10.14893904 -13 10 C-14 9 -14 9 -14.4375 6.6875 C-14 4 -14 4 -11.5 1.6875 C-7.12505278 -0.42184955 -4.79737673 -0.47973767 0 0 Z " fill="#BB1111" transform="translate(115,116)"/>
<path d="M0 0 C-0.89203125 0.47050781 -1.7840625 0.94101563 -2.703125 1.42578125 C-3.88551092 2.05451027 -5.06779735 2.68342643 -6.25 3.3125 C-7.41015625 3.92738281 -8.5703125 4.54226562 -9.765625 5.17578125 C-12.37033548 6.64486313 -14.67723539 8.13143936 -17 10 C-17 6 -17 6 -15.6796875 4.5859375 C-6.1407882 -1.81462264 -6.1407882 -1.81462264 0 0 Z " fill="#C22B2B" transform="translate(201,133)"/>
<path d="M0 0 C-2.70188004 1.80125336 -4.93057703 3.00243753 -8 4 C-8.99 3.67 -9.98 3.34 -11 3 C-9.73581754 2.30034557 -8.46334598 1.61565237 -7.1875 0.9375 C-6.47980469 0.55464844 -5.77210938 0.17179688 -5.04296875 -0.22265625 C-3 -1 -3 -1 0 0 Z " fill="#C43131" transform="translate(164,156)"/>
<path d="M0 0 C4.37859255 0.50522222 6.81651224 3.17827222 10 6 C5.75354935 6 3.61475228 4.18249194 0 2 C0 1.34 0 0.68 0 0 Z " fill="#C32D2D" transform="translate(177,114)"/>
<path d="M0 0 C0.556875 0.226875 1.11375 0.45375 1.6875 0.6875 C-1.125 2.25 -1.125 2.25 -4.3125 3.6875 C-5.3025 3.3575 -6.2925 3.0275 -7.3125 2.6875 C-2.88173077 -0.38942308 -2.88173077 -0.38942308 0 0 Z " fill="#BF2121" transform="translate(199.3125,132.3125)"/>
</svg>
