<svg width="1000" height="1000" viewBox="0 0 1000 1000" xmlns="http://www.w3.org/2000/svg"><defs/><path fill="#b90909" transform="matrix(0.18932363261552582 0 0 0.18932363261552582 1484.1229647180596 201.2374373813176)" d="M -4764.43610745502 572.07557528496 C -4778.35810745502 531.00957528496 -4801.88710745502 491.39357528496 -4834.18610745502 462.13557528496 C -4851.84310745502 446.14157528496 -4873.32510745502 434.58457528496 -4893.45810745502 421.98157528496 C -4893.45810745502 452.35557528496 -4892.37210745502 482.79257528496 -4897.77210745502 512.83357528496 C -4900.86710745502 530.04757528496 -4905.38010745502 564.92557528496 -4925.40610745502 571.58957528496 C -4930.87910745502 573.41157528496 -4936.67210745502 571.92457528496 -4942.09510745502 570.71857528496 C -4949.69510745502 569.02957528496 -4965.48610745502 567.20957528496 -4968.54310745502 558.68857528496 C -4972.25410745502 547.46357528496 -4970.34610745502 534.32957528496 -4968.98210745502 522.85257528496 C -4967.33710745502 509.01757528496 -4964.99610745502 495.26457528496 -4962.60210745502 481.54257528496 C -4958.78310745502 459.65557528496 -4954.61210745502 437.82957528496 -4950.57210745502 415.98257528496 C -4947.09310745502 397.17157528496 -4942.80110745502 378.32257528496 -4940.21010745502 359.36057528496 C -4938.99410745502 350.46357528496 -4937.57310745502 341.66057528496 -4936.02510745502 332.81357528496 C -4933.56010745502 318.72757528496 -4933.09110745502 304.69557528496 -4933.09110745502 290.39757528496 C -4933.09110745502 259.20757528496 -4937.12410745502 227.50257528496 -4946.93310745502 197.79557528496 C -4961.80810745502 152.74757528496 -4989.48510745502 112.29757528496 -5027.42310745502 83.60657528496 C -5048.55510745502 67.62557528496 -5072.75910745502 57.93857528496 -5096.72810745502 47.16357528496 C -5089.52810745502 74.47057528496 -5081.41510745502 101.72857528496 -5076.31110745502 129.51457528496 C -5071.81310745502 153.99757528496 -5068.15110745502 179.65257528496 -5073.85210745502 204.26357528496 C -5078.85610745502 225.86657528496 -5092.39910745502 241.96257528496 -5110.67010745502 253.97257528496 C -5153.99010745502 282.44657528496 -5209.51610745502 293.84957528496 -5259.10410745502 306.24057528496 C -5287.17010745502 313.25357528496 -5316.07710745502 321.34957528496 -5342.13410745502 334.27157528496 C -5362.66910745502 344.45357528496 -5380.93110745502 355.74057528496 -5398.60510745502 370.22657528496 C -5430.45710745502 396.33457528496 -5449.60310745502 436.00257528496 -5451.82010745502 476.90957528496 C -5453.09510745502 500.44757528496 -5449.99810745502 525.36057528496 -5442.51310745502 547.77057528496 C -5434.78710745502 570.89857528496 -5424.85610745502 593.16857528496 -5417.68610745502 616.50657528496 C -5409.65410745502 639.59957528496 -5403.04710745502 668.64257528496 -5407.72410745502 693.09357528496 C -5412.48010745502 717.96557528496 -5431.01310745502 730.22957528496 -5454.52910745502 735.12257528496 C -5476.47610745502 739.68957528496 -5503.38410745502 739.34657528496 -5524.36810745502 730.78757528496 C -5557.59710745502 717.23357528496 -5562.28510745502 679.33457528496 -5558.80610745502 647.69657528496 C -5553.96710745502 605.47257528496 -5536.63210745502 567.25157528496 -5520.84510745502 528.33557528496 C -5537.50410745502 537.66557528496 -5554.27210745502 546.82257528496 -5570.82110745502 556.34757528496 C -5611.07110745502 579.51357528496 -5646.43110745502 610.94657528496 -5674.15310745502 648.20557528496 C -5703.90310745502 688.19157528496 -5725.24110745502 735.19257528496 -5731.56410745502 784.87457528496 C -5734.95310745502 811.51057528496 -5735.00910745502 838.38057528496 -5734.93610745502 865.18257528496 C -5734.86410745502 891.64357528496 -5733.09510745502 919.18057528496 -5738.95610745502 945.23657528496 C -5741.53710745502 956.70957528496 -5749.98010745502 975.66257528496 -5763.06710745502 978.77357528496 C -5767.77810745502 979.89657528496 -5770.98310745502 981.51157528496 -5775.35910745502 978.65757528496 C -5781.60110745502 974.58557528496 -5785.58010745502 966.38657528496 -5788.45310745502 959.76157528496 C -5794.40610745502 946.03257528496 -5794.21410745502 929.95157528496 -5795.85510745502 915.25257528496 C -5811.05110745502 928.64157528496 -5827.22710745502 941.52357528496 -5840.80610745502 956.58957528496 C -5870.13810745502 989.13257528496 -5887.14310745502 1030.35857528496 -5892.62010745502 1073.58557528496 C -5903.91010745502 1162.68957528496 -5870.82810745502 1258.95057528496 -5821.72010745502 1332.44457528496 C -5862.71910745502 1226.47657528496 -5887.26910745502 1089.34157528496 -5815.99410745502 990.61057528496 C -5804.66010745502 1008.30557528496 -5786.94410745502 1020.79157528496 -5765.17810745502 1018.81757528496 C -5750.65010745502 1017.50057528496 -5736.50610745502 1009.22857528496 -5726.13410745502 999.26257528496 C -5691.06010745502 965.56157528496 -5696.32110745502 909.03457528496 -5696.66610745502 864.72057528496 C -5697.03810745502 816.72857528496 -5694.85010745502 769.74857528496 -5675.07610745502 725.26057528496 C -5656.61810745502 683.73157528496 -5627.66010745502 646.85757528496 -5592.58210745502 618.06857528496 C -5602.43110745502 665.51157528496 -5601.62910745502 723.67457528496 -5558.63610745502 755.14157528496 C -5529.58010745502 776.40857528496 -5487.89510745502 778.78757528496 -5453.28610745502 773.32457528496 C -5430.50110745502 769.72757528496 -5407.97010745502 761.18657528496 -5391.93810745502 744.06157528496 C -5375.10010745502 726.07357528496 -5368.23010745502 701.72957528496 -5368.56410745502 677.51657528496 C -5369.28510745502 625.29657528496 -5391.32610745502 579.34257528496 -5407.74110745502 530.85557528496 C -5421.62410745502 489.84557528496 -5413.92510745502 440.33457528496 -5383.98710745502 408.59357528496 C -5367.85510745502 390.92757528496 -5348.61210745502 380.28557528496 -5327.66910745502 369.39757528496 C -5300.91510745502 355.48757528496 -5270.51810745502 348.33657528496 -5241.51310745502 340.99257528496 C -5192.01310745502 328.45857528496 -5139.00810745502 315.73857528496 -5095.04210745502 288.72257528496 C -5069.55410745502 273.06057528496 -5049.36910745502 251.32057528496 -5039.94510745502 222.53857528496 C -5029.59610745502 190.93057528496 -5033.44710745502 156.58657528496 -5039.07410745502 124.46057528496 C -4982.56910745502 175.68657528496 -4964.90010745502 255.07957528496 -4974.91410745502 328.43657528496 C -4981.96910745502 380.11357528496 -4993.11210745502 431.08157528496 -5001.85310745502 482.49157528496 C -5006.68910745502 510.93757528496 -5014.96610745502 544.76757528496 -5004.60310745502 572.83957528496 C -4995.13410745502 597.33157528496 -4968.95110745502 604.99657528496 -4945.44510745502 609.58957528496 C -4879.72810745502 622.42857528496 -4861.84810745502 546.23957528496 -4856.84110745502 496.73257528496 C -4824.92310745502 525.29857528496 -4798.20710745502 557.90057528496 -4781.90710745502 597.85757528496 C -4764.67510745502 640.10157528496 -4760.47710745502 686.35057528496 -4765.95610745502 731.45557528496 C -4748.81110745502 679.92757528496 -4747.55510745502 623.83457528496 -4764.43610745502 572.07557528496 C -4773.38410745502 545.67957528496 -4755.92510745502 598.16957528496 -4764.43610745502 572.07557528496 Z"/><path fill="#b90909" transform="matrix(0.18932363261552582 0 0 0.18932363261552582 1484.1229647180596 201.2374373813176)" d="M -4522.13810745502 973.91157528496 L -4535.84510745502 973.47157528496 C -4538.89710745502 973.37357528496 -4541.83510745502 973.32557528496 -4544.82710745502 973.32557528496 C -4601.38310745502 973.32557528496 -4646.22110745502 990.72157528496 -4678.09710745502 1025.02957528496 C -4692.77810745502 1040.83057528496 -4701.14110745502 1056.70057528496 -4705.30910745502 1066.23657528496 L -4710.95710745502 1083.09757528496 L -4728.98210745502 1090.64257528496 L -5309.07410745502 1315.03557528496 L -4725.10510745502 1070.59157528496 C -4861.50610745502 936.09157528496 -5278.69910745502 731.52757528496 -5278.69910745502 731.52757528496 L -5778.43310745502 1414.75357528496 C -5783.72810745502 1421.94057528496 -5787.53110745502 1430.11357528496 -5789.61610745502 1438.79357528496 C -5791.49710745502 1445.94057528496 -5792.22810745502 1452.15257528496 -5792.06010745502 1457.56457528496 C -5794.72110745502 1477.84857528496 -5780.62610745502 1501.39757528496 -5762.78310745502 1509.62757528496 C -5762.65410745502 1509.68757528496 -5762.52810745502 1509.70957528496 -5762.40510745502 1509.71857528496 C -5755.74510745502 1514.32457528496 -5748.15710745502 1517.82057528496 -5739.80610745502 1519.81257528496 C -5728.74510745502 1522.45157528496 -5717.19610745502 1522.24257528496 -5706.23810745502 1519.20457528496 C -5665.80410745502 1507.94957528496 -5620.35010745502 1495.24457528496 -5571.51010745502 1481.51257528496 L -5571.51010745502 1503.15357528496 C -5571.51010745502 1527.39657528496 -5551.85810745502 1547.04957528496 -5527.61410745502 1547.04957528496 L -5527.53810745502 1547.04957528496 C -5503.29610745502 1547.04957528496 -5483.64310745502 1527.39757528496 -5483.64310745502 1503.15357528496 L -5483.64310745502 1456.72557528496 C -5470.20510745502 1452.92057528496 -5456.60410745502 1449.06557528496 -5442.86810745502 1445.16357528496 L -5442.86810745502 1552.60157528496 C -5442.86810745502 1576.84357528496 -5423.21610745502 1596.49657528496 -5398.97210745502 1596.49657528496 L -5398.89610745502 1596.49657528496 C -5374.65410745502 1596.49657528496 -5355.00010745502 1576.84457528496 -5355.00010745502 1552.60157528496 L -5355.00010745502 1420.11257528496 C -5297.94610745502 1403.78257528496 -5239.63610745502 1386.96357528496 -5181.85510745502 1370.11457528496 L -5181.85510745502 1397.94157528496 C -5181.85510745502 1422.18457528496 -5162.20210745502 1441.83757528496 -5137.95910745502 1441.83757528496 L -5137.88310745502 1441.83757528496 C -5113.64110745502 1441.83757528496 -5093.98710745502 1422.18557528496 -5093.98710745502 1397.94157528496 L -5093.98710745502 1344.34057528496 C -4860.69210745502 1275.47757528496 -4651.82510745502 1210.11357528496 -4591.66810745502 1180.29157528496 C -4462.70610745502 1116.18757528496 -4504.37210745502 1008.48457528496 -4522.13810745502 973.91157528496 Z M -5459.76810745502 1104.02057528496 C -5453.13310745502 1100.95157528496 -5445.91010745502 1102.45057528496 -5443.63310745502 1107.36957528496 C -5441.35810745502 1112.28857528496 -5444.89110745502 1118.76457528496 -5451.52610745502 1121.83457528496 C -5458.16110745502 1124.90357528496 -5465.38410745502 1123.40457528496 -5467.66010745502 1118.48657528496 C -5469.93610745502 1113.56757528496 -5466.40310745502 1107.09057528496 -5459.76810745502 1104.02057528496 Z M -5640.11210745502 1386.95657528496 C -5646.34410745502 1388.53057528496 -5652.34010745502 1386.07557528496 -5653.50310745502 1381.47357528496 C -5654.66610745502 1376.86957528496 -5650.55610745502 1371.86257528496 -5644.32310745502 1370.28757528496 C -5638.09110745502 1368.71257528496 -5632.09510745502 1371.16757528496 -5630.93210745502 1375.76957528496 C -5629.77010745502 1380.37357528496 -5633.88010745502 1385.38157528496 -5640.11210745502 1386.95657528496 Z M -5624.54110745502 1304.69257528496 C -5631.17610745502 1307.76257528496 -5638.39910745502 1306.26357528496 -5640.67510745502 1301.34457528496 C -5642.95110745502 1296.42557528496 -5639.41810745502 1289.94957528496 -5632.78310745502 1286.87957528496 C -5626.14810745502 1283.81057528496 -5618.92510745502 1285.30857528496 -5616.64810745502 1290.22757528496 C -5614.37310745502 1295.14657528496 -5617.90610745502 1301.62257528496 -5624.54110745502 1304.69257528496 Z M -5466.69510745502 1301.74457528496 C -5515.26710745502 1318.11857528496 -5562.25810745502 1308.80157528496 -5571.65410745502 1280.93157528496 C -5581.05010745502 1253.06257528496 -5549.29110745502 1217.19657528496 -5500.71810745502 1200.82157528496 C -5452.14510745502 1184.44657528496 -5405.15410745502 1193.76457528496 -5395.75810745502 1221.63457528496 C -5386.36410745502 1249.50357528496 -5418.12310745502 1285.36957528496 -5466.69510745502 1301.74457528496 Z M -5057.83610745502 923.69457528496 C -5051.20110745502 920.62557528496 -5043.97810745502 922.12457528496 -5041.70110745502 927.04257528496 C -5039.42610745502 931.96157528496 -5042.95910745502 938.43857528496 -5049.59410745502 941.50857528496 C -5056.22910745502 944.57757528496 -5063.45210745502 943.07857528496 -5065.72910745502 938.15957528496 C -5068.00410745502 933.24157528496 -5064.47010745502 926.76457528496 -5057.83610745502 923.69457528496 Z M -5015.34810745502 969.84857528496 C -4964.84910745502 961.06157528496 -4919.82510745502 977.42757528496 -4914.78410745502 1006.40357528496 C -4909.74210745502 1035.37857528496 -4946.59310745502 1065.99057528496 -4997.09310745502 1074.77657528496 C -5047.59210745502 1083.56257528496 -5092.61610745502 1067.19657528496 -5097.65810745502 1038.22157528496 C -5102.69910745502 1009.24557528496 -5065.84810745502 978.63457528496 -5015.34810745502 969.84857528496 Z M -5098.21410745502 1104.02757528496 C -5091.58010745502 1100.95857528496 -5084.35710745502 1102.45657528496 -5082.08010745502 1107.37557528496 C -5079.80310745502 1112.29457528496 -5083.33810745502 1118.77157528496 -5089.97310745502 1121.84057528496 C -5096.60810745502 1124.91057528496 -5103.83110745502 1123.41157528496 -5106.10710745502 1118.49257528496 C -5108.38310745502 1113.57357528496 -5104.84810745502 1107.09757528496 -5098.21410745502 1104.02757528496 Z M -5237.46810745502 845.83657528496 C -5206.09610745502 835.26057528496 -5175.74410745502 841.27457528496 -5169.67810745502 859.27057528496 C -5163.61210745502 877.26657528496 -5184.12610745502 900.42857528496 -5215.49910745502 911.00457528496 C -5246.87110745502 921.58057528496 -5277.22310745502 915.56657528496 -5283.28910745502 897.57057528496 C -5289.35610745502 879.57557528496 -5268.84210745502 856.41257528496 -5237.46810745502 845.83657528496 Z M -5347.59210745502 956.46657528496 C -5354.22710745502 959.53657528496 -5361.45010745502 958.03757528496 -5363.72610745502 953.11857528496 C -5366.00210745502 948.19957528496 -5362.46810745502 941.72357528496 -5355.83310745502 938.65357528496 C -5349.19810745502 935.58357528496 -5341.97610745502 937.08257528496 -5339.69910745502 942.00157528496 C -5337.42210745502 946.92057528496 -5340.95710745502 953.39757528496 -5347.59210745502 956.46657528496 Z M -5337.50310745502 1091.53457528496 C -5344.71010745502 1070.15457528496 -5318.76310745502 1042.10557528496 -5279.54610745502 1028.88557528496 C -5240.33010745502 1015.66457528496 -5202.69610745502 1022.27957528496 -5195.48910745502 1043.65857528496 C -5188.28110745502 1065.03857528496 -5214.22910745502 1093.08757528496 -5253.44510745502 1106.30757528496 C -5292.66110745502 1119.52757528496 -5330.29610745502 1112.91357528496 -5337.50310745502 1091.53457528496 Z M -5314.59410745502 1239.32357528496 C -5321.22910745502 1242.39257528496 -5328.45110745502 1240.89457528496 -5330.72810745502 1235.97557528496 C -5333.00510745502 1231.05657528496 -5329.47010745502 1224.57957528496 -5322.83510745502 1221.51057528496 C -5316.20010745502 1218.44057528496 -5308.97710745502 1219.93957528496 -5306.70110745502 1224.85857528496 C -5304.42510745502 1229.77757528496 -5307.96010745502 1236.25257528496 -5314.59410745502 1239.32357528496 Z"/><path fill="#b90909" transform="matrix(0.18932363261552582 0 0 0.18932363261552582 1484.1229647180596 201.2374373813176)" d="M -5192.96510745502 535.25557528496 C -5273.30010745502 588.35557528496 -5278.70010745502 731.52657528496 -5278.70010745502 731.52657528496 C -5278.70010745502 731.52657528496 -4861.50810745502 936.09057528496 -4725.10610745502 1070.59057528496 C -4725.10610745502 1070.59057528496 -4691.71010745502 951.45757528496 -4535.29910745502 956.47957528496 C -4819.51410745502 678.88357528496 -5192.96510745502 535.25557528496 -5192.96510745502 535.25557528496 Z M -5116.88910745502 627.83757528496 C -5170.36910745502 607.75357528496 -5203.15910745502 626.92457528496 -5203.15910745502 626.92457528496 C -5179.95610745502 588.58357528496 -5148.08110745502 580.44357528496 -5148.08110745502 580.44357528496 C -4844.61910745502 702.16357528496 -4623.54710745502 915.17257528496 -4623.54710745502 915.17257528496 C -4784.97610745502 798.70057528496 -5063.41010745502 647.92157528496 -5116.88910745502 627.83757528496 Z"/><path id="text" fill="#b90909" transform="matrix(2.1824802953207625 0 0 2.1824802953207625 -16.132894343011078 824.7579948119327)" d="M 88.60114285714 -36.83425746286 L 88.60114285714 -17.53825746286 C 88.02514285714 -17.41025746286 87.20914285714 -17.25025746286 86.15314285714 -17.05825746286 C 85.09714285714 -16.86625746286 83.96114285714 -16.77025746286 82.74514285714 -16.77025746286 C 80.31314285714 -16.77025746286 78.60114285714 -17.21825746286 77.60914285714 -18.11425746286 C 76.61714285714 -19.01025746286 76.12114285714 -20.51425746286 76.12114285714 -22.62625746286 L 76.12114285714 -70.81825746286 C 76.12114285714 -72.03425746286 76.44114285714 -72.96225746286 77.08114285714 -73.60225746286 C 77.72114285714 -74.24225746286 78.61714285714 -74.75425746286 79.76914285714 -75.13825746286 C 80.79314285714 -75.45825746286 81.92914285714 -75.74625746286 83.17714285714 -76.00225746286 C 84.42514285714 -76.25825746286 85.72114285714 -76.46625746286 87.06514285714 -76.62625746286 C 88.40914285714 -76.78625746286 89.75314285714 -76.89825746286 91.09714285714 -76.96225746286 C 92.44114285714 -77.02625746286 93.72114285714 -77.05825746286 94.93714285714 -77.05825746286 C 103.38514285714 -77.05825746286 109.73714285714 -75.25025746286 113.99314285714 -71.63425746286 C 118.24914285714 -68.01825746286 120.37714285714 -63.13825746286 120.37714285714 -56.99425746286 C 120.37714285714 -50.85025746286 118.29714285714 -45.95425746286 114.13714285714 -42.30625746286 C 109.97714285714 -38.65825746286 103.96114285714 -36.83425746286 96.08914285714 -36.83425746286 L 88.60114285714 -36.83425746286 Z M 95.32114285714 -46.81825746286 C 99.16114285714 -46.81825746286 102.18514285714 -47.65025746286 104.39314285714 -49.31425746286 C 106.60114285714 -50.97825746286 107.70514285714 -53.53825746286 107.70514285714 -56.99425746286 C 107.70514285714 -60.32225746286 106.66514285714 -62.81825746286 104.58514285714 -64.48225746286 C 102.50514285714 -66.14625746286 99.48114285714 -66.97825746286 95.51314285714 -66.97825746286 C 92.76114285714 -66.97825746286 90.42514285714 -66.78625746286 88.50514285714 -66.40225746286 L 88.50514285714 -46.81825746286 L 95.32114285714 -46.81825746286 Z M 129.40114285714 -62.56225746286 C 129.91314285714 -62.69025746286 130.66514285714 -62.85025746286 131.65714285714 -63.04225746286 C 132.64914285714 -63.23425746286 133.72114285714 -63.33025746286 134.87314285714 -63.33025746286 C 137.17714285714 -63.33025746286 138.85714285714 -62.91425746286 139.91314285714 -62.08225746286 C 140.96914285714 -61.25025746286 141.49714285714 -59.77825746286 141.49714285714 -57.66625746286 L 141.49714285714 -17.53825746286 C 140.98514285714 -17.41025746286 140.23314285714 -17.25025746286 139.24114285714 -17.05825746286 C 138.24914285714 -16.86625746286 137.17714285714 -16.77025746286 136.02514285714 -16.77025746286 C 133.72114285714 -16.77025746286 132.04114285714 -17.18625746286 130.98514285714 -18.01825746286 C 129.92914285714 -18.85025746286 129.40114285714 -20.32225746286 129.40114285714 -22.43425746286 L 129.40114285714 -62.56225746286 Z M 128.44114285714 -76.48225746286 C 128.44114285714 -78.33825746286 129.09714285714 -79.92225746286 130.40914285714 -81.23425746286 C 131.72114285714 -82.54625746286 133.40114285714 -83.20225746286 135.44914285714 -83.20225746286 C 137.49714285714 -83.20225746286 139.16114285714 -82.54625746286 140.44114285714 -81.23425746286 C 141.72114285714 -79.92225746286 142.36114285714 -78.33825746286 142.36114285714 -76.48225746286 C 142.36114285714 -74.56225746286 141.72114285714 -72.94625746286 140.44114285714 -71.63425746286 C 139.16114285714 -70.32225746286 137.49714285714 -69.66625746286 135.44914285714 -69.66625746286 C 133.40114285714 -69.66625746286 131.72114285714 -70.32225746286 130.40914285714 -71.63425746286 C 129.09714285714 -72.94625746286 128.44114285714 -74.56225746286 128.44114285714 -76.48225746286 Z M 154.26514285714 -17.44225746286 C 153.49714285714 -18.14625746286 152.88914285714 -18.94625746286 152.44114285714 -19.84225746286 C 151.99314285714 -20.73825746286 151.76914285714 -21.73025746286 151.76914285714 -22.81825746286 C 151.76914285714 -23.90625746286 152.00914285714 -24.91425746286 152.48914285714 -25.84225746286 C 152.96914285714 -26.77025746286 153.56114285714 -27.68225746286 154.26514285714 -28.57825746286 L 174.61714285714 -53.34625746286 L 153.49714285714 -53.34625746286 C 153.17714285714 -53.85825746286 152.88914285714 -54.54625746286 152.63314285714 -55.41025746286 C 152.37714285714 -56.27425746286 152.24914285714 -57.18625746286 152.24914285714 -58.14625746286 C 152.24914285714 -59.81025746286 152.63314285714 -61.02625746286 153.40114285714 -61.79425746286 C 154.16914285714 -62.56225746286 155.19314285714 -62.94625746286 156.47314285714 -62.94625746286 L 187.00114285714 -62.94625746286 C 187.76914285714 -62.24225746286 188.37714285714 -61.44225746286 188.82514285714 -60.54625746286 C 189.27314285714 -59.65025746286 189.49714285714 -58.62625746286 189.49714285714 -57.47425746286 C 189.49714285714 -56.45025746286 189.25714285714 -55.47425746286 188.77714285714 -54.54625746286 C 188.29714285714 -53.61825746286 187.70514285714 -52.70625746286 187.00114285714 -51.81025746286 L 166.74514285714 -26.94625746286 L 189.11314285714 -26.94625746286 C 189.43314285714 -26.43425746286 189.72114285714 -25.76225746286 189.97714285714 -24.93025746286 C 190.23314285714 -24.09825746286 190.36114285714 -23.20225746286 190.36114285714 -22.24225746286 C 190.36114285714 -20.57825746286 189.97714285714 -19.36225746286 189.20914285714 -18.59425746286 C 188.44114285714 -17.82625746286 187.41714285714 -17.44225746286 186.13714285714 -17.44225746286 L 154.26514285714 -17.44225746286 Z M 199.86514285714 -17.44225746286 C 199.09714285714 -18.14625746286 198.48914285714 -18.94625746286 198.04114285714 -19.84225746286 C 197.59314285714 -20.73825746286 197.36914285714 -21.73025746286 197.36914285714 -22.81825746286 C 197.36914285714 -23.90625746286 197.60914285714 -24.91425746286 198.08914285714 -25.84225746286 C 198.56914285714 -26.77025746286 199.16114285714 -27.68225746286 199.86514285714 -28.57825746286 L 220.21714285714 -53.34625746286 L 199.09714285714 -53.34625746286 C 198.77714285714 -53.85825746286 198.48914285714 -54.54625746286 198.23314285714 -55.41025746286 C 197.97714285714 -56.27425746286 197.84914285714 -57.18625746286 197.84914285714 -58.14625746286 C 197.84914285714 -59.81025746286 198.23314285714 -61.02625746286 199.00114285714 -61.79425746286 C 199.76914285714 -62.56225746286 200.79314285714 -62.94625746286 202.07314285714 -62.94625746286 L 232.60114285714 -62.94625746286 C 233.36914285714 -62.24225746286 233.97714285714 -61.44225746286 234.42514285714 -60.54625746286 C 234.87314285714 -59.65025746286 235.09714285714 -58.62625746286 235.09714285714 -57.47425746286 C 235.09714285714 -56.45025746286 234.85714285714 -55.47425746286 234.37714285714 -54.54625746286 C 233.89714285714 -53.61825746286 233.30514285714 -52.70625746286 232.60114285714 -51.81025746286 L 212.34514285714 -26.94625746286 L 234.71314285714 -26.94625746286 C 235.03314285714 -26.43425746286 235.32114285714 -25.76225746286 235.57714285714 -24.93025746286 C 235.83314285714 -24.09825746286 235.96114285714 -23.20225746286 235.96114285714 -22.24225746286 C 235.96114285714 -20.57825746286 235.57714285714 -19.36225746286 234.80914285714 -18.59425746286 C 234.04114285714 -17.82625746286 233.01714285714 -17.44225746286 231.73714285714 -17.44225746286 L 199.86514285714 -17.44225746286 Z M 263.22514285714 -25.21825746286 C 265.08114285714 -25.21825746286 266.77714285714 -25.39425746286 268.31314285714 -25.74625746286 C 269.84914285714 -26.09825746286 270.96914285714 -26.53025746286 271.67314285714 -27.04225746286 L 271.67314285714 -37.69825746286 L 262.36114285714 -36.83425746286 C 259.80114285714 -36.57825746286 257.84914285714 -36.01825746286 256.50514285714 -35.15425746286 C 255.16114285714 -34.29025746286 254.48914285714 -32.93025746286 254.48914285714 -31.07425746286 C 254.48914285714 -29.21825746286 255.17714285714 -27.77825746286 256.55314285714 -26.75425746286 C 257.92914285714 -25.73025746286 260.15314285714 -25.21825746286 263.22514285714 -25.21825746286 Z M 262.84114285714 -64.29025746286 C 269.11314285714 -64.29025746286 274.12114285714 -62.94625746286 277.86514285714 -60.25825746286 C 281.60914285714 -57.57025746286 283.48114285714 -53.41025746286 283.48114285714 -47.77825746286 L 283.48114285714 -25.60225746286 C 283.48114285714 -24.06625746286 283.09714285714 -22.85025746286 282.32914285714 -21.95425746286 C 281.56114285714 -21.05825746286 280.60114285714 -20.25825746286 279.44914285714 -19.55425746286 C 277.65714285714 -18.46625746286 275.38514285714 -17.60225746286 272.63314285714 -16.96225746286 C 269.88114285714 -16.32225746286 266.74514285714 -16.00225746286 263.22514285714 -16.00225746286 C 256.82514285714 -16.00225746286 251.78514285714 -17.23425746286 248.10514285714 -19.69825746286 C 244.42514285714 -22.16225746286 242.58514285714 -25.85825746286 242.58514285714 -30.78625746286 C 242.58514285714 -35.07425746286 243.94514285714 -38.35425746286 246.66514285714 -40.62625746286 C 249.38514285714 -42.89825746286 253.33714285714 -44.29025746286 258.52114285714 -44.80225746286 L 271.67314285714 -46.14625746286 L 271.67314285714 -47.87425746286 C 271.67314285714 -50.30625746286 270.79314285714 -52.09825746286 269.03314285714 -53.25025746286 C 267.27314285714 -54.40225746286 264.79314285714 -54.97825746286 261.59314285714 -54.97825746286 C 259.09714285714 -54.97825746286 256.66514285714 -54.67425746286 254.29714285714 -54.06625746286 C 251.92914285714 -53.45825746286 249.81714285714 -52.70625746286 247.96114285714 -51.81025746286 C 247.25714285714 -52.32225746286 246.66514285714 -53.01025746286 246.18514285714 -53.87425746286 C 245.70514285714 -54.73825746286 245.46514285714 -55.68225746286 245.46514285714 -56.70625746286 C 245.46514285714 -57.98625746286 245.76914285714 -59.02625746286 246.37714285714 -59.82625746286 C 246.98514285714 -60.62625746286 247.96114285714 -61.34625746286 249.30514285714 -61.98625746286 C 251.16114285714 -62.75425746286 253.27314285714 -63.33025746286 255.64114285714 -63.71425746286 C 258.00914285714 -64.09825746286 260.40914285714 -64.29025746286 262.84114285714 -64.29025746286 Z M 307.57714285714 -17.53825746286 C 307.00114285714 -17.41025746286 306.23314285714 -17.25025746286 305.27314285714 -17.05825746286 C 304.31314285714 -16.86625746286 303.22514285714 -16.77025746286 302.00914285714 -16.77025746286 C 299.76914285714 -16.77025746286 298.10514285714 -17.18625746286 297.01714285714 -18.01825746286 C 295.92914285714 -18.85025746286 295.38514285714 -20.32225746286 295.38514285714 -22.43425746286 L 295.38514285714 -52.86625746286 C 295.38514285714 -54.53025746286 295.76914285714 -55.93825746286 296.53714285714 -57.09025746286 C 297.30514285714 -58.24225746286 298.42514285714 -59.26625746286 299.89714285714 -60.16225746286 C 301.88114285714 -61.37825746286 304.32914285714 -62.37025746286 307.24114285714 -63.13825746286 C 310.15314285714 -63.90625746286 313.30514285714 -64.29025746286 316.69714285714 -64.29025746286 C 322.77714285714 -64.29025746286 325.81714285714 -62.40225746286 325.81714285714 -58.62625746286 C 325.81714285714 -57.73025746286 325.67314285714 -56.88225746286 325.38514285714 -56.08225746286 C 325.09714285714 -55.28225746286 324.79314285714 -54.62625746286 324.47314285714 -54.11425746286 C 323.00114285714 -54.43425746286 321.17714285714 -54.59425746286 319.00114285714 -54.59425746286 C 316.76114285714 -54.59425746286 314.64914285714 -54.33825746286 312.66514285714 -53.82625746286 C 310.68114285714 -53.31425746286 308.98514285714 -52.67425746286 307.57714285714 -51.90625746286 L 307.57714285714 -17.53825746286 Z M 333.97714285714 -62.56225746286 C 334.48914285714 -62.69025746286 335.24114285714 -62.85025746286 336.23314285714 -63.04225746286 C 337.22514285714 -63.23425746286 338.29714285714 -63.33025746286 339.44914285714 -63.33025746286 C 341.75314285714 -63.33025746286 343.43314285714 -62.91425746286 344.48914285714 -62.08225746286 C 345.54514285714 -61.25025746286 346.07314285714 -59.77825746286 346.07314285714 -57.66625746286 L 346.07314285714 -17.53825746286 C 345.56114285714 -17.41025746286 344.80914285714 -17.25025746286 343.81714285714 -17.05825746286 C 342.82514285714 -16.86625746286 341.75314285714 -16.77025746286 340.60114285714 -16.77025746286 C 338.29714285714 -16.77025746286 336.61714285714 -17.18625746286 335.56114285714 -18.01825746286 C 334.50514285714 -18.85025746286 333.97714285714 -20.32225746286 333.97714285714 -22.43425746286 L 333.97714285714 -62.56225746286 Z M 333.01714285714 -76.48225746286 C 333.01714285714 -78.33825746286 333.67314285714 -79.92225746286 334.98514285714 -81.23425746286 C 336.29714285714 -82.54625746286 337.97714285714 -83.20225746286 340.02514285714 -83.20225746286 C 342.07314285714 -83.20225746286 343.73714285714 -82.54625746286 345.01714285714 -81.23425746286 C 346.29714285714 -79.92225746286 346.93714285714 -78.33825746286 346.93714285714 -76.48225746286 C 346.93714285714 -74.56225746286 346.29714285714 -72.94625746286 345.01714285714 -71.63425746286 C 343.73714285714 -70.32225746286 342.07314285714 -69.66625746286 340.02514285714 -69.66625746286 C 337.97714285714 -69.66625746286 336.29714285714 -70.32225746286 334.98514285714 -71.63425746286 C 333.67314285714 -72.94625746286 333.01714285714 -74.56225746286 333.01714285714 -76.48225746286 Z M 376.60114285714 -25.21825746286 C 378.45714285714 -25.21825746286 380.15314285714 -25.39425746286 381.68914285714 -25.74625746286 C 383.22514285714 -26.09825746286 384.34514285714 -26.53025746286 385.04914285714 -27.04225746286 L 385.04914285714 -37.69825746286 L 375.73714285714 -36.83425746286 C 373.17714285714 -36.57825746286 371.22514285714 -36.01825746286 369.88114285714 -35.15425746286 C 368.53714285714 -34.29025746286 367.86514285714 -32.93025746286 367.86514285714 -31.07425746286 C 367.86514285714 -29.21825746286 368.55314285714 -27.77825746286 369.92914285714 -26.75425746286 C 371.30514285714 -25.73025746286 373.52914285714 -25.21825746286 376.60114285714 -25.21825746286 Z M 376.21714285714 -64.29025746286 C 382.48914285714 -64.29025746286 387.49714285714 -62.94625746286 391.24114285714 -60.25825746286 C 394.98514285714 -57.57025746286 396.85714285714 -53.41025746286 396.85714285714 -47.77825746286 L 396.85714285714 -25.60225746286 C 396.85714285714 -24.06625746286 396.47314285714 -22.85025746286 395.70514285714 -21.95425746286 C 394.93714285714 -21.05825746286 393.97714285714 -20.25825746286 392.82514285714 -19.55425746286 C 391.03314285714 -18.46625746286 388.76114285714 -17.60225746286 386.00914285714 -16.96225746286 C 383.25714285714 -16.32225746286 380.12114285714 -16.00225746286 376.60114285714 -16.00225746286 C 370.20114285714 -16.00225746286 365.16114285714 -17.23425746286 361.48114285714 -19.69825746286 C 357.80114285714 -22.16225746286 355.96114285714 -25.85825746286 355.96114285714 -30.78625746286 C 355.96114285714 -35.07425746286 357.32114285714 -38.35425746286 360.04114285714 -40.62625746286 C 362.76114285714 -42.89825746286 366.71314285714 -44.29025746286 371.89714285714 -44.80225746286 L 385.04914285714 -46.14625746286 L 385.04914285714 -47.87425746286 C 385.04914285714 -50.30625746286 384.16914285714 -52.09825746286 382.40914285714 -53.25025746286 C 380.64914285714 -54.40225746286 378.16914285714 -54.97825746286 374.96914285714 -54.97825746286 C 372.47314285714 -54.97825746286 370.04114285714 -54.67425746286 367.67314285714 -54.06625746286 C 365.30514285714 -53.45825746286 363.19314285714 -52.70625746286 361.33714285714 -51.81025746286 C 360.63314285714 -52.32225746286 360.04114285714 -53.01025746286 359.56114285714 -53.87425746286 C 359.08114285714 -54.73825746286 358.84114285714 -55.68225746286 358.84114285714 -56.70625746286 C 358.84114285714 -57.98625746286 359.14514285714 -59.02625746286 359.75314285714 -59.82625746286 C 360.36114285714 -60.62625746286 361.33714285714 -61.34625746286 362.68114285714 -61.98625746286 C 364.53714285714 -62.75425746286 366.64914285714 -63.33025746286 369.01714285714 -63.71425746286 C 371.38514285714 -64.09825746286 373.78514285714 -64.29025746286 376.21714285714 -64.29025746286 Z"/></svg>